<svg width="506" height="123" viewBox="0 0 506 123" fill="none" xmlns="http://www.w3.org/2000/svg">
<path d="M7.296 29.968H24C29.056 29.968 33.472 30.416 37.248 31.312C41.024 32.144 44.544 33.776 47.808 36.208C51.712 39.152 54.72 42.864 56.832 47.344C59.008 51.824 60.096 56.72 60.096 62.032C60.096 73.232 55.808 81.84 47.232 87.856C43.776 90.288 40.256 91.92 36.672 92.752C33.088 93.584 28.8 94 23.808 94H7.296V29.968ZM19.776 40.72V83.248H23.616C30.144 83.248 35.36 81.84 39.264 79.024C41.76 77.232 43.712 74.832 45.12 71.824C46.528 68.752 47.232 65.488 47.232 62.032C47.232 58.64 46.528 55.44 45.12 52.432C43.776 49.36 41.856 46.864 39.36 44.944C35.584 42.128 30.336 40.72 23.616 40.72H19.776ZM67.9605 94V52.432H79.6725V58.672C81.0805 55.984 82.8085 54.064 84.8565 52.912C86.7765 51.696 89.0805 51.088 91.7685 51.088C93.3045 51.088 94.9685 51.408 96.7605 52.048L95.2245 62.992C93.7525 61.968 91.9285 61.456 89.7525 61.456C86.3605 61.456 83.7685 62.576 81.9765 64.816C80.4405 66.736 79.6725 69.808 79.6725 74.032V94H67.9605ZM96.8175 93.136C95.4095 91.664 94.7055 89.872 94.7055 87.76C94.7055 85.648 95.4095 83.888 96.8175 82.48C98.2895 81.008 100.082 80.272 102.194 80.272C104.306 80.272 106.066 81.008 107.474 82.48C108.946 83.888 109.682 85.648 109.682 87.76C109.682 89.872 108.946 91.664 107.474 93.136C106.066 94.544 104.306 95.248 102.194 95.248C100.082 95.248 98.2895 94.544 96.8175 93.136ZM133.043 29.968H146.675L163.763 72.976L180.851 29.968H194.483L167.411 94H159.923L133.043 29.968ZM226.121 57.808V52.432H237.833V94H226.121V88.624C222.985 93.104 218.729 95.344 213.353 95.344C207.081 95.344 201.961 93.2 197.993 88.912C194.089 84.624 192.137 79.376 192.137 73.168C192.137 66.896 194.057 61.648 197.897 57.424C201.737 53.2 206.697 51.088 212.777 51.088C218.793 51.088 223.241 53.328 226.121 57.808ZM224.009 64.816C221.833 62.576 219.081 61.456 215.753 61.456C212.425 61.456 209.673 62.576 207.497 64.816C205.321 67.056 204.233 69.84 204.233 73.168C204.233 76.496 205.321 79.312 207.497 81.616C209.673 83.856 212.425 84.976 215.753 84.976C219.081 84.976 221.833 83.856 224.009 81.616C226.185 79.312 227.273 76.496 227.273 73.168C227.273 69.84 226.185 67.056 224.009 64.816ZM247.079 94V52.432H258.791V57.808C261.991 53.328 266.279 51.088 271.655 51.088C277.095 51.088 281.191 52.784 283.943 56.176C286.119 58.864 287.207 62.768 287.207 67.888V94H275.495V71.344C275.495 67.44 274.759 64.72 273.287 63.184C271.943 61.776 270.119 61.072 267.815 61.072C264.615 61.072 262.215 62.288 260.615 64.72C259.399 66.64 258.791 69.328 258.791 72.784V94H247.079ZM328.312 57.808V24.016H340.024V94H328.312V88.624C325.176 93.104 320.92 95.344 315.544 95.344C309.272 95.344 304.152 93.2 300.184 88.912C296.28 84.624 294.328 79.376 294.328 73.168C294.328 66.896 296.248 61.648 300.088 57.424C303.928 53.2 308.888 51.088 314.968 51.088C320.984 51.088 325.432 53.328 328.312 57.808ZM326.201 64.816C324.024 62.576 321.272 61.456 317.944 61.456C314.616 61.456 311.864 62.576 309.688 64.816C307.512 67.056 306.424 69.84 306.424 73.168C306.424 76.496 307.512 79.312 309.688 81.616C311.864 83.856 314.616 84.976 317.944 84.976C321.272 84.976 324.024 83.856 326.201 81.616C328.376 79.312 329.464 76.496 329.464 73.168C329.464 69.84 328.376 67.056 326.201 64.816ZM348.407 115.984L363.671 87.76L343.895 52.432H357.527L370.391 76.048L381.911 52.432H395.159L361.655 115.984H348.407ZM399.346 54.544L409.522 28.72L420.274 29.968L406.738 55.408L399.346 54.544ZM447.534 55.504L441.774 62.32C439.79 60.464 437.518 59.536 434.958 59.536C433.55 59.536 432.43 59.856 431.598 60.496C430.83 61.072 430.446 61.872 430.446 62.896C430.446 64.56 431.694 65.808 434.19 66.64L436.974 67.504C442.414 69.232 445.934 71.216 447.534 73.456C448.942 75.376 449.646 77.68 449.646 80.368C449.646 84.592 448.11 88.112 445.038 90.928C441.838 93.872 437.678 95.344 432.558 95.344C426.094 95.344 420.718 93.04 416.43 88.432L422.574 81.328C425.326 84.528 428.398 86.128 431.79 86.128C433.454 86.128 434.83 85.744 435.918 84.976C437.006 84.144 437.55 83.024 437.55 81.616C437.55 79.696 436.334 78.288 433.902 77.392L431.214 76.432C427.054 74.96 424.078 73.296 422.286 71.44C420.174 69.2 419.118 66.544 419.118 63.472C419.118 59.632 420.558 56.496 423.438 54.064C425.934 52.08 429.55 51.088 434.286 51.088C439.278 51.088 443.694 52.56 447.534 55.504Z" fill="#C8A431"/>
<path d="M462.277 9.64844V6.90909H478.6V9.64844H472.019V28H468.847V9.64844H462.277ZM482.207 6.90909H486.069L492.783 23.304H493.03L499.745 6.90909H503.607V28H500.579V12.7379H500.383L494.163 27.9691H491.65L485.43 12.7276H485.234V28H482.207V6.90909Z" fill="black"/>
</svg>
