<svg width="560" height="123" viewBox="0 0 560 123" fill="none" xmlns="http://www.w3.org/2000/svg">
<path d="M7.296 29.968H24C29.056 29.968 33.472 30.416 37.248 31.312C41.024 32.144 44.544 33.776 47.808 36.208C51.712 39.152 54.72 42.864 56.832 47.344C59.008 51.824 60.096 56.72 60.096 62.032C60.096 73.232 55.808 81.84 47.232 87.856C43.776 90.288 40.256 91.92 36.672 92.752C33.088 93.584 28.8 94 23.808 94H7.296V29.968ZM19.776 40.72V83.248H23.616C30.144 83.248 35.36 81.84 39.264 79.024C41.76 77.232 43.712 74.832 45.12 71.824C46.528 68.752 47.232 65.488 47.232 62.032C47.232 58.64 46.528 55.44 45.12 52.432C43.776 49.36 41.856 46.864 39.36 44.944C35.584 42.128 30.336 40.72 23.616 40.72H19.776ZM71.8005 94V52.432H83.5125V58.672C84.9205 55.984 86.6485 54.064 88.6965 52.912C90.6165 51.696 92.9205 51.088 95.6085 51.088C97.1445 51.088 98.8085 51.408 100.6 52.048L99.0645 62.992C97.5925 61.968 95.7685 61.456 93.5925 61.456C90.2005 61.456 87.6085 62.576 85.8165 64.816C84.2805 66.736 83.5125 69.808 83.5125 74.032V94H71.8005ZM104.497 93.136C103.089 91.664 102.385 89.872 102.385 87.76C102.385 85.648 103.089 83.888 104.497 82.48C105.969 81.008 107.761 80.272 109.873 80.272C111.985 80.272 113.745 81.008 115.153 82.48C116.625 83.888 117.361 85.648 117.361 87.76C117.361 89.872 116.625 91.664 115.153 93.136C113.745 94.544 111.985 95.248 109.873 95.248C107.761 95.248 105.969 94.544 104.497 93.136ZM148.403 29.968H162.035L179.123 72.976L196.211 29.968H209.843L182.771 94H175.283L148.403 29.968ZM245.321 57.808V52.432H257.033V94H245.321V88.624C242.185 93.104 237.929 95.344 232.553 95.344C226.281 95.344 221.161 93.2 217.193 88.912C213.289 84.624 211.337 79.376 211.337 73.168C211.337 66.896 213.257 61.648 217.097 57.424C220.937 53.2 225.897 51.088 231.977 51.088C237.993 51.088 242.441 53.328 245.321 57.808ZM243.209 64.816C241.033 62.576 238.281 61.456 234.953 61.456C231.625 61.456 228.873 62.576 226.697 64.816C224.521 67.056 223.433 69.84 223.433 73.168C223.433 76.496 224.521 79.312 226.697 81.616C228.873 83.856 231.625 84.976 234.953 84.976C238.281 84.976 241.033 83.856 243.209 81.616C245.385 79.312 246.473 76.496 246.473 73.168C246.473 69.84 245.385 67.056 243.209 64.816ZM270.119 94V52.432H281.831V57.808C285.031 53.328 289.319 51.088 294.695 51.088C300.135 51.088 304.231 52.784 306.983 56.176C309.159 58.864 310.247 62.768 310.247 67.888V94H298.535V71.344C298.535 67.44 297.799 64.72 296.327 63.184C294.983 61.776 293.159 61.072 290.855 61.072C287.655 61.072 285.255 62.288 283.655 64.72C282.439 66.64 281.831 69.328 281.831 72.784V94H270.119ZM355.193 57.808V24.016H366.905V94H355.193V88.624C352.057 93.104 347.801 95.344 342.425 95.344C336.153 95.344 331.033 93.2 327.065 88.912C323.161 84.624 321.209 79.376 321.209 73.168C321.209 66.896 323.129 61.648 326.969 57.424C330.809 53.2 335.769 51.088 341.849 51.088C347.865 51.088 352.313 53.328 355.193 57.808ZM353.081 64.816C350.905 62.576 348.153 61.456 344.825 61.456C341.497 61.456 338.745 62.576 336.569 64.816C334.393 67.056 333.305 69.84 333.305 73.168C333.305 76.496 334.393 79.312 336.569 81.616C338.745 83.856 341.497 84.976 344.825 84.976C348.153 84.976 350.905 83.856 353.081 81.616C355.257 79.312 356.345 76.496 356.345 73.168C356.345 69.84 355.257 67.056 353.081 64.816ZM379.126 115.984L394.39 87.76L374.614 52.432H388.246L401.11 76.048L412.63 52.432H425.878L392.374 115.984H379.126ZM433.906 54.544L444.082 28.72L454.834 29.968L441.298 55.408L433.906 54.544ZM485.934 55.504L480.174 62.32C478.19 60.464 475.918 59.536 473.358 59.536C471.95 59.536 470.83 59.856 469.998 60.496C469.23 61.072 468.846 61.872 468.846 62.896C468.846 64.56 470.094 65.808 472.59 66.64L475.374 67.504C480.814 69.232 484.334 71.216 485.934 73.456C487.342 75.376 488.046 77.68 488.046 80.368C488.046 84.592 486.51 88.112 483.438 90.928C480.238 93.872 476.078 95.344 470.958 95.344C464.494 95.344 459.118 93.04 454.83 88.432L460.974 81.328C463.726 84.528 466.798 86.128 470.19 86.128C471.854 86.128 473.23 85.744 474.318 84.976C475.406 84.144 475.95 83.024 475.95 81.616C475.95 79.696 474.734 78.288 472.302 77.392L469.614 76.432C465.454 74.96 462.478 73.296 460.686 71.44C458.574 69.2 457.518 66.544 457.518 63.472C457.518 59.632 458.958 56.496 461.838 54.064C464.334 52.08 467.95 51.088 472.686 51.088C477.678 51.088 482.094 52.56 485.934 55.504Z" fill="#C8A431"/>
<rect x="499.5" y="0.5" width="60" height="58" rx="29" stroke="black"/>
<path d="M508.401 21.1747V18.9091H524.219V21.1747H517.587V40H515.033V21.1747H508.401ZM528.16 18.9091H531.209L538.376 36.4162H538.623L545.791 18.9091H548.839V40H546.45V23.9759H546.244L539.653 40H537.347L530.756 23.9759H530.55V40H528.16V18.9091Z" fill="black"/>
</svg>
