<?xml version="1.0" encoding="UTF-8" ?>
<!DOCTYPE svg PUBLIC "-//W3C//DTD SVG 1.1//EN" "http://www.w3.org/Graphics/SVG/1.1/DTD/svg11.dtd">
<svg width="1408pt" height="768pt" viewBox="0 0 1408 768" version="1.1" xmlns="http://www.w3.org/2000/svg">
<path fill="#ffffff" opacity="1.00" d=" M 0.00 0.00 L 1408.00 0.00 L 1408.00 768.00 L 0.00 768.00 L 0.00 0.00 M 595.58 125.56 C 592.71 126.81 590.09 128.64 587.04 129.44 C 580.05 127.10 572.61 128.47 565.58 129.83 C 562.92 129.24 560.03 129.00 557.49 130.14 C 556.68 128.85 555.96 126.79 554.01 127.30 C 546.02 128.06 538.22 131.45 532.44 137.06 C 531.62 135.68 531.36 132.92 529.17 133.26 C 524.87 134.24 521.58 137.73 519.10 141.19 C 517.64 143.19 519.23 145.33 520.14 147.15 C 516.27 149.50 512.33 151.88 509.23 155.24 C 504.72 159.82 502.26 165.86 499.59 171.60 C 497.89 175.19 496.46 178.91 495.20 182.68 C 494.92 183.33 494.36 184.65 494.09 185.31 C 491.96 185.00 489.61 183.68 487.52 184.55 C 485.01 190.09 482.82 195.81 481.70 201.80 C 477.51 212.14 474.04 222.74 470.76 233.39 C 469.61 213.39 471.17 193.27 469.90 173.29 C 449.63 173.56 429.35 173.22 409.07 173.40 C 404.05 173.34 398.98 173.53 394.00 172.83 C 391.62 170.61 389.86 167.54 386.65 166.40 C 383.17 164.74 379.49 166.48 376.04 167.26 C 375.14 164.03 373.09 159.94 369.03 160.67 C 364.62 160.54 364.91 166.30 361.25 167.32 C 332.87 179.18 304.61 191.37 276.30 203.39 C 273.58 204.27 270.53 202.26 267.96 203.86 C 265.21 205.12 263.98 208.49 264.54 211.33 C 265.04 214.31 269.24 214.89 269.20 218.07 C 274.11 249.34 279.29 280.58 284.05 311.88 C 278.20 312.03 271.39 310.47 266.48 314.53 C 263.50 316.67 262.61 320.38 261.67 323.71 C 253.77 323.67 245.87 323.48 237.98 323.69 C 237.71 324.24 237.18 325.35 236.92 325.90 C 239.93 326.22 242.97 326.34 246.00 326.27 C 280.89 326.11 315.79 326.44 350.68 326.11 C 357.39 327.46 364.35 325.94 371.13 327.04 C 364.34 331.99 356.34 334.85 349.33 339.45 C 333.80 348.23 319.58 359.31 307.15 372.11 C 294.83 384.05 284.80 398.24 276.70 413.30 C 271.46 413.54 267.73 418.93 269.42 423.93 C 269.17 426.76 268.00 429.37 266.82 431.91 C 259.88 446.78 255.84 462.83 252.97 478.93 C 252.23 483.39 251.18 487.93 252.09 492.45 C 245.04 495.69 237.33 500.10 234.87 507.98 C 233.59 510.87 234.48 515.12 237.93 515.90 C 242.57 517.09 246.22 513.22 249.19 510.27 C 249.83 511.42 250.17 512.64 250.19 513.94 C 248.94 533.60 251.99 553.29 256.55 572.37 C 265.31 607.18 283.29 639.64 308.27 665.44 C 270.29 665.35 232.30 665.37 194.32 665.47 C 194.26 666.18 194.15 667.59 194.09 668.30 C 212.38 668.65 230.69 668.35 248.99 668.44 C 413.68 668.41 578.37 668.42 743.07 668.37 C 758.60 668.25 774.14 668.69 789.66 668.17 C 794.52 668.57 799.55 668.57 804.40 668.13 C 824.26 668.77 844.16 668.20 864.04 668.39 C 980.17 668.43 1096.30 668.42 1212.44 668.44 C 1212.49 667.45 1212.55 666.46 1212.61 665.47 C 1187.32 665.25 1162.01 665.46 1136.72 665.40 C 1159.13 638.12 1176.14 606.52 1186.93 572.92 C 1201.28 527.29 1204.87 477.78 1193.76 431.04 C 1185.34 393.90 1167.76 359.09 1143.83 329.54 C 1135.38 318.65 1125.70 308.80 1115.75 299.28 C 1112.27 295.49 1107.44 293.09 1104.64 288.67 C 1107.63 288.60 1110.64 288.78 1113.64 288.48 C 1115.04 288.43 1114.36 286.92 1114.23 286.14 C 1109.23 286.34 1104.23 286.11 1099.25 286.12 C 1094.08 279.09 1085.27 276.14 1079.50 269.80 L 1081.00 269.86 C 1081.97 257.96 1081.22 245.95 1081.47 234.01 C 1081.32 201.37 1081.74 168.73 1081.20 136.10 C 1043.77 136.18 1006.33 136.28 968.90 136.11 C 968.44 163.73 968.99 191.37 968.72 219.00 C 968.47 219.40 967.97 220.20 967.73 220.60 C 935.17 211.03 903.64 197.50 875.39 178.59 C 862.37 170.15 850.58 160.04 837.90 151.14 C 806.42 127.62 769.14 111.59 730.12 106.27 C 684.65 99.59 637.43 106.71 595.58 125.56 Z" />
<path fill="#fae8da" opacity="1.00" d=" M 595.58 125.56 C 637.43 106.71 684.65 99.59 730.12 106.27 C 769.14 111.59 806.42 127.62 837.90 151.14 C 850.58 160.04 862.37 170.15 875.39 178.59 C 903.64 197.50 935.17 211.03 967.73 220.60 C 967.97 220.20 968.47 219.40 968.72 219.00 C 968.55 229.68 968.84 240.35 968.69 251.03 C 968.78 257.27 968.28 263.52 968.96 269.75 C 1005.80 269.61 1042.66 269.51 1079.50 269.80 C 1085.27 276.14 1094.08 279.09 1099.25 286.12 C 1068.17 286.59 1037.08 286.02 1006.00 286.18 C 983.29 286.18 960.59 286.33 937.89 286.01 C 937.38 277.18 937.76 268.34 937.69 259.51 C 936.38 259.17 935.09 258.84 933.80 258.52 C 933.86 253.44 933.91 248.36 933.70 243.29 C 914.35 243.40 895.00 243.56 875.66 243.27 C 875.54 238.48 875.52 233.68 875.73 228.89 C 894.44 229.66 913.16 228.87 931.87 228.83 C 932.12 228.43 932.63 227.63 932.88 227.23 C 908.66 226.63 884.43 226.83 860.22 227.25 C 860.21 227.62 860.20 228.36 860.20 228.73 C 863.87 228.72 867.55 228.76 871.23 228.88 C 871.45 233.69 871.36 238.51 871.33 243.33 C 866.20 242.97 861.05 243.13 855.91 242.99 C 853.52 230.42 853.05 217.61 851.12 204.99 C 847.10 205.51 843.09 206.16 839.09 206.82 C 838.70 202.64 838.67 198.44 838.81 194.25 C 828.17 194.17 817.52 194.33 806.88 194.15 C 806.40 224.73 806.74 255.33 806.70 285.92 C 795.88 286.42 785.05 285.99 774.23 286.07 C 774.26 286.73 774.31 288.04 774.33 288.69 C 869.96 288.65 965.58 288.62 1061.21 288.77 C 1057.94 304.44 1052.73 319.64 1049.36 335.29 C 1047.53 343.14 1044.60 350.76 1043.53 358.75 C 1005.36 358.70 967.18 358.52 929.01 358.81 C 926.06 358.83 923.23 360.38 922.57 363.43 C 912.80 393.67 902.75 423.84 893.02 454.10 C 873.70 454.04 854.38 453.76 835.06 453.90 C 830.92 454.09 826.57 453.21 822.59 454.60 C 821.77 456.60 821.87 458.80 821.98 460.93 C 823.77 462.97 826.21 464.45 829.03 464.16 C 850.35 464.10 871.67 464.33 892.99 464.06 C 932.64 464.46 972.30 464.11 1011.96 464.25 C 1013.47 463.91 1016.10 464.82 1016.59 462.74 C 1016.77 461.55 1016.92 460.36 1017.06 459.17 C 1023.01 440.05 1029.23 421.01 1034.76 401.77 C 1047.21 406.63 1059.54 411.77 1071.89 416.88 C 1073.83 413.22 1075.58 409.43 1078.15 406.15 C 1081.12 411.08 1083.47 416.37 1085.17 421.87 C 1081.64 421.73 1078.12 421.77 1074.61 421.86 C 1075.79 432.56 1077.91 443.14 1079.23 453.84 C 1079.74 457.92 1080.06 462.08 1081.66 465.92 C 1019.45 466.27 957.22 466.31 895.00 466.23 C 870.32 465.99 845.64 466.55 820.95 466.13 C 802.07 466.29 783.17 465.49 764.30 466.26 C 764.23 471.43 764.15 476.59 764.17 481.76 C 779.13 481.74 794.09 481.78 809.05 481.73 C 812.95 481.74 816.96 481.18 820.76 482.44 C 820.07 486.03 819.53 489.64 818.89 493.25 C 816.92 506.68 814.91 520.11 812.58 533.48 C 786.70 517.37 757.73 507.25 729.22 496.91 C 728.65 496.72 727.52 496.35 726.95 496.17 C 730.20 491.78 730.73 486.17 731.31 480.93 C 732.94 460.65 732.74 440.25 731.41 419.97 C 729.60 397.05 726.03 374.14 718.82 352.26 C 715.62 341.78 711.28 331.70 707.50 321.42 C 706.13 317.78 705.67 313.86 705.72 309.99 C 705.99 284.65 705.60 259.27 703.11 234.04 C 701.82 222.40 700.52 210.71 697.54 199.36 C 695.93 193.16 692.63 187.44 687.98 183.02 C 678.31 173.72 666.86 166.56 655.54 159.48 C 644.60 152.79 633.25 146.77 621.71 141.19 C 618.17 139.61 614.78 137.58 611.00 136.63 C 610.08 137.49 609.22 138.41 608.42 139.38 C 606.78 139.27 605.27 138.58 603.86 137.81 C 598.38 134.79 592.96 131.54 587.04 129.44 C 590.09 128.64 592.71 126.81 595.58 125.56 Z" />
<path fill="#fa9d88" opacity="1.00" d=" M 532.44 137.06 C 538.22 131.45 546.02 128.06 554.01 127.30 C 555.96 126.79 556.68 128.85 557.49 130.14 C 552.86 132.89 548.29 135.83 543.09 137.40 C 543.80 137.88 544.52 138.38 545.23 138.89 C 551.06 135.27 557.19 131.45 564.24 131.02 C 563.13 135.04 559.79 137.93 555.58 138.24 C 551.86 138.72 548.67 140.73 545.39 142.36 C 543.52 143.45 541.37 142.51 539.41 142.29 C 539.89 140.61 540.35 138.92 540.86 137.24 C 537.99 138.18 534.99 137.94 532.04 137.86 C 528.11 138.61 524.84 141.28 522.07 144.04 C 527.10 148.76 534.78 149.65 541.37 148.73 C 544.07 149.06 546.57 150.32 549.20 150.98 C 549.99 149.65 550.39 147.59 552.24 147.36 C 558.72 146.07 565.21 148.27 571.72 148.12 C 568.61 145.86 564.54 146.32 560.94 145.81 C 556.11 145.24 551.33 146.18 546.62 147.11 C 546.32 141.13 552.90 139.89 557.46 139.31 C 562.39 139.39 566.61 136.71 571.13 135.20 C 574.58 133.89 578.28 134.88 581.83 135.12 C 577.09 130.70 570.30 133.38 565.02 135.19 C 565.21 133.40 565.39 131.61 565.58 129.83 C 572.61 128.47 580.05 127.10 587.04 129.44 C 592.96 131.54 598.38 134.79 603.86 137.81 C 600.66 144.29 596.89 150.75 590.87 155.01 C 586.63 152.05 581.48 154.08 577.02 155.28 C 572.49 156.66 567.72 156.79 563.03 157.04 C 562.44 157.60 561.85 158.15 561.26 158.69 C 561.88 156.43 559.51 156.03 557.99 155.29 C 556.24 157.46 554.63 159.80 553.97 162.55 C 550.40 165.81 547.33 169.77 542.93 171.96 C 536.92 175.08 529.94 175.26 523.73 177.79 C 521.74 180.92 521.09 184.78 519.67 188.21 C 511.38 187.00 503.25 184.99 495.20 182.68 C 496.46 178.91 497.89 175.19 499.59 171.60 C 502.26 165.86 504.72 159.82 509.23 155.24 C 512.33 151.88 516.27 149.50 520.14 147.15 C 519.23 145.33 517.64 143.19 519.10 141.19 C 521.58 137.73 524.87 134.24 529.17 133.26 C 531.36 132.92 531.62 135.68 532.44 137.06 M 540.76 158.77 C 538.87 160.47 536.29 159.48 534.10 159.18 C 529.73 158.14 525.01 158.80 521.15 161.10 C 518.74 162.55 516.13 164.44 515.75 167.45 C 518.81 165.25 521.18 161.97 524.97 160.91 C 529.55 158.92 534.34 161.26 539.00 161.39 C 543.87 159.70 547.14 155.12 552.11 153.64 C 553.87 153.84 555.52 154.59 557.22 155.08 C 555.68 153.09 553.31 152.21 551.00 151.47 C 547.45 153.73 544.12 156.26 540.76 158.77 Z" />
<path fill="#ec614b" opacity="1.00" d=" M 557.49 130.14 C 560.03 129.00 562.92 129.24 565.58 129.83 C 565.39 131.61 565.21 133.40 565.02 135.19 C 570.30 133.38 577.09 130.70 581.83 135.12 C 578.28 134.88 574.58 133.89 571.13 135.20 C 566.61 136.71 562.39 139.39 557.46 139.31 C 556.99 139.04 556.05 138.51 555.58 138.24 C 559.79 137.93 563.13 135.04 564.24 131.02 C 557.19 131.45 551.06 135.27 545.23 138.89 C 544.52 138.38 543.80 137.88 543.09 137.40 C 548.29 135.83 552.86 132.89 557.49 130.14 Z" />
<path fill="#f2d0b8" opacity="1.00" d=" M 968.90 136.11 C 1006.33 136.28 1043.77 136.18 1081.20 136.10 C 1081.74 168.73 1081.32 201.37 1081.47 234.01 C 1081.22 245.95 1081.97 257.96 1081.00 269.86 L 1079.50 269.80 C 1042.66 269.51 1005.80 269.61 968.96 269.75 C 968.28 263.52 968.78 257.27 968.69 251.03 C 968.84 240.35 968.55 229.68 968.72 219.00 C 968.99 191.37 968.44 163.73 968.90 136.11 M 971.19 149.82 C 971.46 173.61 971.37 197.40 971.31 221.20 C 971.39 236.38 971.30 251.56 971.37 266.74 C 991.23 267.14 1011.10 266.89 1030.97 267.01 C 1045.03 266.81 1059.11 267.49 1073.15 266.70 C 1075.01 267.15 1076.96 267.09 1078.88 267.19 C 1078.90 228.03 1079.10 188.87 1078.89 149.72 C 1059.95 149.42 1041.00 149.64 1022.06 149.59 C 1005.10 149.77 988.14 149.29 971.19 149.82 Z" />
<path fill="#eb654d" opacity="1.00" d=" M 532.04 137.86 C 534.99 137.94 537.99 138.18 540.86 137.24 C 540.35 138.92 539.89 140.61 539.41 142.29 C 541.37 142.51 543.52 143.45 545.39 142.36 C 548.67 140.73 551.86 138.72 555.58 138.24 C 556.05 138.51 556.99 139.04 557.46 139.31 C 552.90 139.89 546.32 141.13 546.62 147.11 C 551.33 146.18 556.11 145.24 560.94 145.81 C 564.54 146.32 568.61 145.86 571.72 148.12 C 565.21 148.27 558.72 146.07 552.24 147.36 C 550.39 147.59 549.99 149.65 549.20 150.98 C 546.57 150.32 544.07 149.06 541.37 148.73 C 534.78 149.65 527.10 148.76 522.07 144.04 C 524.84 141.28 528.11 138.61 532.04 137.86 Z" />
<path fill="#749edd" opacity="1.00" d=" M 608.42 139.38 C 609.22 138.41 610.08 137.49 611.00 136.63 C 614.78 137.58 618.17 139.61 621.71 141.19 C 633.25 146.77 644.60 152.79 655.54 159.48 C 666.86 166.56 678.31 173.72 687.98 183.02 C 692.63 187.44 695.93 193.16 697.54 199.36 C 700.52 210.71 701.82 222.40 703.11 234.04 C 705.60 259.27 705.99 284.65 705.72 309.99 C 705.67 313.86 706.13 317.78 707.50 321.42 C 711.28 331.70 715.62 341.78 718.82 352.26 C 726.03 374.14 729.60 397.05 731.41 419.97 C 732.74 440.25 732.94 460.65 731.31 480.93 C 730.73 486.17 730.20 491.78 726.95 496.17 C 721.40 502.34 714.59 507.24 707.75 511.88 C 698.54 518.02 687.45 520.48 676.53 520.93 C 667.76 521.18 658.97 521.84 650.35 523.47 C 643.86 524.37 637.45 525.73 631.10 527.29 C 627.23 526.58 623.39 525.69 619.66 524.45 C 614.02 522.64 609.57 517.90 607.52 512.42 C 603.44 500.37 604.55 487.52 603.96 475.03 C 603.54 453.94 600.67 432.99 596.54 412.33 C 594.29 401.48 590.87 390.67 584.63 381.41 C 580.88 375.90 575.87 371.46 571.14 366.83 C 563.58 359.61 554.78 353.91 546.45 347.64 C 532.63 337.09 518.04 327.53 504.87 316.14 C 494.19 307.07 482.71 298.89 472.99 288.73 L 472.75 290.11 C 472.05 289.28 471.36 288.44 470.68 287.61 C 469.73 286.40 468.84 285.15 468.02 283.86 C 465.52 279.67 463.68 274.95 463.69 270.01 C 463.66 260.30 466.62 250.96 468.69 241.57 C 469.44 238.86 470.18 236.14 470.76 233.39 C 474.04 222.74 477.51 212.14 481.70 201.80 C 482.82 195.81 485.01 190.09 487.52 184.55 C 489.61 183.68 491.96 185.00 494.09 185.31 C 502.30 187.43 510.69 188.81 518.90 190.98 C 519.96 191.29 521.04 191.61 522.11 191.95 C 520.89 199.01 518.30 205.76 517.27 212.87 C 515.20 227.25 512.77 241.58 510.70 255.96 C 510.45 257.24 510.16 258.50 509.89 259.78 C 507.21 261.02 504.12 261.87 502.29 264.37 C 505.37 264.11 508.21 262.85 510.76 261.16 C 511.02 261.56 511.54 262.38 511.80 262.79 C 509.04 267.07 505.56 270.88 503.01 275.27 C 502.95 275.75 502.84 276.71 502.79 277.19 C 506.80 273.38 509.98 268.74 512.48 263.83 C 517.92 271.31 525.77 276.43 532.83 282.22 C 546.60 292.58 560.62 302.70 575.65 311.14 C 580.25 314.24 586.00 312.42 590.70 310.59 C 594.22 306.72 594.88 300.21 600.12 297.86 C 610.25 303.77 622.01 306.14 632.34 311.70 C 627.78 317.44 626.82 324.93 625.18 331.85 C 617.00 328.38 608.85 324.66 601.58 319.49 C 597.96 317.11 595.04 313.84 591.39 311.51 C 592.00 313.37 592.99 315.13 594.63 316.28 C 604.07 323.78 614.71 329.80 626.07 333.85 C 628.58 326.64 629.68 318.96 633.13 312.08 C 638.14 314.73 640.54 320.15 644.42 324.03 L 645.75 324.20 C 647.15 320.12 647.63 315.67 649.95 311.95 C 654.84 312.15 659.20 314.88 664.11 315.08 C 661.46 307.12 656.74 299.42 649.61 294.76 C 650.86 297.28 652.62 299.47 654.47 301.57 C 657.48 305.04 659.69 309.09 661.88 313.11 C 657.88 312.19 654.08 310.49 650.01 309.89 C 649.61 310.05 648.80 310.35 648.40 310.50 C 646.62 313.48 645.82 316.92 644.51 320.11 C 642.27 311.01 641.86 301.57 639.33 292.54 L 639.25 292.24 C 642.37 292.23 645.55 292.57 648.14 294.49 C 648.90 294.19 649.67 293.88 650.44 293.56 C 653.27 294.56 656.69 294.12 658.55 291.54 C 664.44 284.11 665.52 274.15 665.43 264.98 C 665.31 251.84 664.10 238.66 661.36 225.80 C 661.02 224.14 660.65 222.50 660.29 220.85 C 663.37 221.69 666.40 222.70 669.52 223.46 C 667.53 220.16 663.51 219.43 660.28 217.91 C 662.97 216.78 665.63 215.55 668.01 213.84 C 666.74 213.58 665.47 213.40 664.19 213.29 C 662.15 213.14 660.11 213.15 658.10 212.80 C 656.76 211.40 655.92 209.62 654.86 208.03 C 652.44 204.13 648.57 201.50 644.96 198.81 C 645.38 190.86 642.56 181.75 635.03 177.92 C 629.26 174.92 622.63 176.88 617.00 179.20 C 609.70 172.74 601.23 167.88 593.42 162.09 C 594.13 160.77 594.85 159.45 595.62 158.16 C 600.14 152.07 604.20 145.67 608.42 139.38 M 615.96 158.98 C 613.59 163.20 609.74 166.51 607.96 171.05 C 609.44 170.22 610.89 169.28 611.91 167.89 C 616.29 162.14 619.94 155.88 623.81 149.78 C 624.71 148.53 625.13 147.07 625.29 145.55 C 621.39 149.40 619.26 154.64 615.96 158.98 M 487.41 193.16 C 486.17 194.39 488.08 196.71 489.43 195.39 C 491.12 194.12 488.82 191.45 487.41 193.16 M 485.80 200.29 C 487.49 202.51 490.50 202.55 492.99 203.20 C 500.02 204.54 506.99 206.22 514.07 207.24 C 515.47 207.18 517.85 207.99 518.36 206.06 C 507.35 205.00 496.72 201.73 485.80 200.29 M 644.89 326.63 C 645.95 329.21 647.39 331.60 648.79 334.01 C 656.27 347.66 662.50 362.01 667.36 376.80 C 674.18 398.30 677.99 420.61 680.73 442.95 C 682.39 458.26 684.38 473.57 684.95 488.98 C 686.13 498.65 685.57 508.41 686.25 518.11 C 688.31 517.12 687.66 514.77 687.72 512.92 C 687.01 488.90 685.18 464.92 682.17 441.08 C 679.71 422.92 677.00 404.73 672.07 387.05 C 666.83 367.72 659.26 349.00 649.34 331.60 C 648.18 329.69 647.24 327.32 644.89 326.63 Z" />
<path fill="#eb684d" opacity="1.00" d=" M 590.87 155.01 C 596.89 150.75 600.66 144.29 603.86 137.81 C 605.27 138.58 606.78 139.27 608.42 139.38 C 604.20 145.67 600.14 152.07 595.62 158.16 C 594.04 157.10 592.48 156.02 590.87 155.01 Z" />
<path fill="#426ca6" opacity="1.00" d=" M 615.96 158.98 C 619.26 154.64 621.39 149.40 625.29 145.55 C 625.13 147.07 624.71 148.53 623.81 149.78 C 619.94 155.88 616.29 162.14 611.91 167.89 C 610.89 169.28 609.44 170.22 607.96 171.05 C 609.74 166.51 613.59 163.20 615.96 158.98 Z" />
<path fill="#ffffff" opacity="1.00" d=" M 971.19 149.82 C 988.14 149.29 1005.10 149.77 1022.06 149.59 C 1041.00 149.64 1059.95 149.42 1078.89 149.72 C 1079.10 188.87 1078.90 228.03 1078.88 267.19 C 1076.96 267.09 1075.01 267.15 1073.15 266.70 C 1064.52 260.38 1054.84 255.73 1045.64 250.34 C 1048.27 246.47 1048.30 240.62 1044.42 237.56 C 1039.61 233.37 1030.88 235.73 1029.68 242.27 C 1028.70 242.63 1027.67 242.81 1026.74 242.25 C 1021.38 239.87 1016.05 237.39 1010.69 235.01 C 1017.73 234.58 1024.79 234.72 1031.85 234.62 C 1031.81 233.36 1031.78 232.11 1031.77 230.85 L 1031.72 230.20 C 1024.48 230.29 1017.24 230.44 1010.00 230.34 C 1003.50 230.17 996.70 231.18 990.56 228.52 C 984.21 225.88 977.57 224.02 971.31 221.20 C 971.37 197.40 971.46 173.61 971.19 149.82 M 997.39 158.57 C 992.36 159.55 987.60 162.32 984.63 166.54 C 978.70 174.75 979.48 187.13 986.58 194.40 C 991.82 200.16 1000.55 202.10 1007.90 199.89 C 1018.58 196.86 1025.27 184.62 1022.13 173.99 C 1019.75 163.30 1007.90 156.50 997.39 158.57 M 1031.93 161.18 C 1031.43 173.86 1031.62 186.57 1031.77 199.26 C 1043.88 199.40 1055.99 199.39 1068.11 199.23 C 1068.29 186.58 1068.32 173.91 1068.03 161.25 C 1056.00 161.38 1043.96 161.45 1031.93 161.18 M 983.80 210.98 C 983.87 212.21 983.95 213.44 984.04 214.67 C 1006.62 214.57 1029.21 214.62 1051.79 214.63 C 1051.85 213.37 1051.92 212.12 1052.00 210.87 C 1029.27 210.98 1006.53 210.76 983.80 210.98 M 983.94 220.84 C 983.90 221.69 983.83 223.39 983.79 224.24 C 1011.64 224.48 1039.50 224.44 1067.34 224.34 C 1067.32 223.46 1067.28 221.71 1067.26 220.83 C 1039.49 220.79 1011.71 220.59 983.94 220.84 Z" />
<path fill="#e16145" opacity="1.00" d=" M 540.76 158.77 C 544.12 156.26 547.45 153.73 551.00 151.47 C 553.31 152.21 555.68 153.09 557.22 155.08 C 555.52 154.59 553.87 153.84 552.11 153.64 C 547.14 155.12 543.87 159.70 539.00 161.39 C 534.34 161.26 529.55 158.92 524.97 160.91 C 521.18 161.97 518.81 165.25 515.75 167.45 C 516.13 164.44 518.74 162.55 521.15 161.10 C 525.01 158.80 529.73 158.14 534.10 159.18 C 536.29 159.48 538.87 160.47 540.76 158.77 Z" />
<path fill="#fae8da" opacity="1.00" d=" M 577.02 155.28 C 581.48 154.08 586.63 152.05 590.87 155.01 C 592.48 156.02 594.04 157.10 595.62 158.16 C 594.85 159.45 594.13 160.77 593.42 162.09 C 601.23 167.88 609.70 172.74 617.00 179.20 C 612.27 181.87 607.57 178.67 603.29 176.78 C 596.79 173.86 589.27 175.98 583.58 179.73 C 578.18 183.19 574.48 188.53 570.10 193.09 C 567.47 195.88 563.92 197.54 561.08 200.09 C 558.59 202.37 558.43 205.99 558.05 209.11 C 556.93 207.84 555.82 206.58 554.64 205.38 C 555.15 208.08 556.60 210.42 558.08 212.69 C 552.50 217.75 549.33 225.44 550.79 232.97 C 552.73 244.95 562.17 253.57 570.77 261.27 C 570.80 265.21 572.23 269.15 575.34 271.71 C 578.12 274.54 582.24 274.82 585.94 275.46 C 588.48 276.52 590.80 278.03 593.27 279.27 C 593.60 279.43 594.26 279.77 594.59 279.93 C 595.21 281.54 595.88 283.15 596.48 284.78 C 597.84 289.09 599.55 293.34 600.12 297.86 C 594.88 300.21 594.22 306.72 590.70 310.59 C 586.00 312.42 580.25 314.24 575.65 311.14 C 560.62 302.70 546.60 292.58 532.83 282.22 C 525.77 276.43 517.92 271.31 512.48 263.83 L 511.80 262.79 C 511.54 262.38 511.02 261.56 510.76 261.16 C 510.45 259.43 510.49 257.68 510.70 255.96 C 512.77 241.58 515.20 227.25 517.27 212.87 C 518.30 205.76 520.89 199.01 522.11 191.95 C 521.04 191.61 519.96 191.29 518.90 190.98 C 519.09 190.29 519.48 188.90 519.67 188.21 C 521.09 184.78 521.74 180.92 523.73 177.79 C 529.94 175.26 536.92 175.08 542.93 171.96 C 547.33 169.77 550.40 165.81 553.97 162.55 C 556.44 161.37 559.15 160.53 561.26 158.69 C 561.85 158.15 562.44 157.60 563.03 157.04 C 567.72 156.79 572.49 156.66 577.02 155.28 Z" />
<path fill="#f5674f" opacity="1.00" d=" M 553.97 162.55 C 554.63 159.80 556.24 157.46 557.99 155.29 C 559.51 156.03 561.88 156.43 561.26 158.69 C 559.15 160.53 556.44 161.37 553.97 162.55 Z" />
<path fill="#f2cbad" opacity="1.00" d=" M 997.39 158.57 C 1007.90 156.50 1019.75 163.30 1022.13 173.99 C 1025.27 184.62 1018.58 196.86 1007.90 199.89 C 1000.55 202.10 991.82 200.16 986.58 194.40 C 979.48 187.13 978.70 174.75 984.63 166.54 C 987.60 162.32 992.36 159.55 997.39 158.57 M 986.83 167.84 C 982.07 174.01 981.85 183.07 985.95 189.64 C 989.29 187.54 991.86 184.51 994.70 181.82 C 1000.31 176.36 1005.84 170.81 1011.22 165.13 C 1012.47 164.18 1010.90 163.17 1010.07 162.77 C 1002.46 158.37 991.99 160.81 986.83 167.84 M 1002.07 178.15 C 1006.87 182.48 1011.55 186.97 1016.68 190.92 C 1022.40 183.38 1021.24 171.79 1014.09 165.60 C 1009.94 169.65 1005.86 173.78 1002.07 178.15 M 987.42 191.86 C 991.32 196.14 997.05 198.87 1002.91 198.45 C 1007.38 198.33 1011.32 195.83 1014.63 193.02 C 1011.50 189.60 1007.95 186.61 1004.66 183.35 C 1003.22 182.13 1001.89 180.54 1000.00 180.08 C 995.61 183.77 991.57 187.91 987.42 191.86 Z" />
<path fill="#f3cdb4" opacity="1.00" d=" M 361.25 167.32 C 364.91 166.30 364.62 160.54 369.03 160.67 C 373.09 159.94 375.14 164.03 376.04 167.26 C 379.49 166.48 383.17 164.74 386.65 166.40 C 389.86 167.54 391.62 170.61 394.00 172.83 C 398.98 173.53 404.05 173.34 409.07 173.40 C 429.35 173.22 449.63 173.56 469.90 173.29 C 471.17 193.27 469.61 213.39 470.76 233.39 C 470.18 236.14 469.44 238.86 468.69 241.57 C 468.49 240.86 468.08 239.45 467.88 238.74 C 467.55 222.15 468.11 205.55 467.75 188.96 C 456.15 188.46 444.51 188.53 432.90 189.01 C 436.40 192.72 439.68 196.62 442.88 200.60 C 441.69 201.84 440.49 203.07 439.14 204.11 C 422.97 215.56 406.99 227.28 390.93 238.87 C 388.05 240.86 385.39 243.25 382.17 244.72 C 377.55 240.75 374.73 235.13 372.21 229.69 C 366.51 217.38 365.35 202.90 369.96 190.05 C 368.10 189.20 366.13 188.51 364.06 188.64 C 355.79 188.70 347.53 188.58 339.27 188.71 C 338.52 187.93 337.76 187.17 336.97 186.43 C 336.94 185.79 336.86 184.50 336.83 183.86 C 317.01 191.74 297.65 200.73 277.88 208.73 C 277.29 211.67 274.90 213.97 274.37 216.84 C 279.19 245.97 283.73 275.17 288.49 304.32 C 289.02 306.74 288.76 309.54 290.08 311.68 C 296.94 312.16 303.92 310.87 310.70 312.35 C 315.81 313.68 318.84 318.65 319.64 323.61 C 339.35 323.67 359.07 323.70 378.78 323.56 C 408.43 323.99 438.10 323.40 467.75 323.73 C 468.30 310.44 467.75 297.14 468.02 283.86 C 468.84 285.15 469.73 286.40 470.68 287.61 C 469.89 299.60 470.59 311.62 470.36 323.63 C 477.32 323.89 484.31 323.21 491.26 323.96 C 491.24 324.47 491.20 325.48 491.18 325.99 C 485.48 326.72 479.73 326.24 474.01 326.33 C 442.02 326.40 410.03 326.12 378.04 326.34 C 368.93 325.99 359.79 325.41 350.68 326.11 C 315.79 326.44 280.89 326.11 246.00 326.27 C 242.97 326.34 239.93 326.22 236.92 325.90 C 237.18 325.35 237.71 324.24 237.98 323.69 C 245.87 323.48 253.77 323.67 261.67 323.71 C 262.61 320.38 263.50 316.67 266.48 314.53 C 271.39 310.47 278.20 312.03 284.05 311.88 C 279.29 280.58 274.11 249.34 269.20 218.07 C 269.24 214.89 265.04 214.31 264.54 211.33 C 263.98 208.49 265.21 205.12 267.96 203.86 C 270.53 202.26 273.58 204.27 276.30 203.39 C 304.61 191.37 332.87 179.18 361.25 167.32 M 365.40 171.49 C 357.02 175.13 348.51 178.48 340.23 182.34 C 338.14 182.98 339.07 185.11 339.66 186.52 C 348.35 186.19 357.04 186.59 365.73 186.16 C 365.40 183.57 364.89 180.91 365.49 178.32 C 366.17 176.04 368.09 174.45 369.59 172.70 C 368.38 171.86 366.95 170.62 365.40 171.49 M 412.89 176.24 C 417.10 178.66 421.68 180.46 425.56 183.43 C 427.50 184.78 429.40 186.77 432.00 186.41 C 443.91 186.09 455.85 186.80 467.73 185.88 C 467.80 182.58 467.82 179.28 467.79 175.99 C 456.22 175.53 444.63 175.96 433.05 175.78 C 426.33 175.90 419.58 175.47 412.89 176.24 Z" />
<path fill="#ffffff" opacity="1.00" d=" M 986.83 167.84 C 991.99 160.81 1002.46 158.37 1010.07 162.77 C 1010.90 163.17 1012.47 164.18 1011.22 165.13 C 1005.84 170.81 1000.31 176.36 994.70 181.82 C 991.86 184.51 989.29 187.54 985.95 189.64 C 981.85 183.07 982.07 174.01 986.83 167.84 Z" />
<path fill="#f2ceb6" opacity="1.00" d=" M 1031.93 161.18 C 1043.96 161.45 1056.00 161.38 1068.03 161.25 C 1068.32 173.91 1068.29 186.58 1068.11 199.23 C 1055.99 199.39 1043.88 199.40 1031.77 199.26 C 1031.62 186.57 1031.43 173.86 1031.93 161.18 Z" />
<path fill="#ffffff" opacity="1.00" d=" M 1002.07 178.15 C 1005.86 173.78 1009.94 169.65 1014.09 165.60 C 1021.24 171.79 1022.40 183.38 1016.68 190.92 C 1011.55 186.97 1006.87 182.48 1002.07 178.15 Z" />
<path fill="#ffffff" opacity="1.00" d=" M 365.40 171.49 C 366.95 170.62 368.38 171.86 369.59 172.70 C 368.09 174.45 366.17 176.04 365.49 178.32 C 364.89 180.91 365.40 183.57 365.73 186.16 C 357.04 186.59 348.35 186.19 339.66 186.52 C 339.07 185.11 338.14 182.98 340.23 182.34 C 348.51 178.48 357.02 175.13 365.40 171.49 Z" />
<path fill="#feffff" opacity="1.00" d=" M 412.89 176.24 C 419.58 175.47 426.33 175.90 433.05 175.78 C 444.63 175.96 456.22 175.53 467.79 175.99 C 467.82 179.28 467.80 182.58 467.73 185.88 C 455.85 186.80 443.91 186.09 432.00 186.41 C 429.40 186.77 427.50 184.78 425.56 183.43 C 421.68 180.46 417.10 178.66 412.89 176.24 Z" />
<path fill="#4b2122" opacity="1.00" d=" M 583.58 179.73 C 589.27 175.98 596.79 173.86 603.29 176.78 C 607.57 178.67 612.27 181.87 617.00 179.20 C 622.63 176.88 629.26 174.92 635.03 177.92 C 642.56 181.75 645.38 190.86 644.96 198.81 C 644.76 201.19 644.49 203.57 643.98 205.90 C 642.56 211.71 639.65 216.97 636.60 222.07 C 632.65 219.56 632.97 213.62 628.99 211.11 C 625.94 209.46 622.41 208.68 618.96 208.81 C 616.58 208.98 615.43 211.40 614.07 213.01 C 610.59 218.06 606.51 222.96 600.86 225.65 C 594.18 228.90 586.60 230.04 579.23 229.26 C 581.99 233.73 583.53 238.75 584.42 243.89 C 585.18 248.36 588.51 252.87 586.06 257.35 C 582.67 256.10 578.98 253.74 575.32 255.45 C 572.72 256.28 571.56 258.89 570.77 261.27 C 562.17 253.57 552.73 244.95 550.79 232.97 C 549.33 225.44 552.50 217.75 558.08 212.69 C 556.60 210.42 555.15 208.08 554.64 205.38 C 555.82 206.58 556.93 207.84 558.05 209.11 C 558.43 205.99 558.59 202.37 561.08 200.09 C 563.92 197.54 567.47 195.88 570.10 193.09 C 574.48 188.53 578.18 183.19 583.58 179.73 Z" />
<path fill="#ffffff" opacity="1.00" d=" M 987.42 191.86 C 991.57 187.91 995.61 183.77 1000.00 180.08 C 1001.89 180.54 1003.22 182.13 1004.66 183.35 C 1007.95 186.61 1011.50 189.60 1014.63 193.02 C 1011.32 195.83 1007.38 198.33 1002.91 198.45 C 997.05 198.87 991.32 196.14 987.42 191.86 Z" />
<path fill="#f77353" opacity="1.00" d=" M 495.20 182.68 C 503.25 184.99 511.38 187.00 519.67 188.21 C 519.48 188.90 519.09 190.29 518.90 190.98 C 510.69 188.81 502.30 187.43 494.09 185.31 C 494.36 184.65 494.92 183.33 495.20 182.68 Z" />
<path fill="#ffffff" opacity="1.00" d=" M 277.88 208.73 C 297.65 200.73 317.01 191.74 336.83 183.86 C 336.86 184.50 336.94 185.79 336.97 186.43 C 336.66 225.96 336.99 265.50 336.83 305.03 C 336.85 307.37 336.96 309.71 337.20 312.04 L 337.29 312.71 C 357.52 313.36 377.78 312.39 397.99 313.24 C 391.88 317.20 385.28 320.32 378.78 323.56 C 359.07 323.70 339.35 323.67 319.64 323.61 C 318.84 318.65 315.81 313.68 310.70 312.35 C 303.92 310.87 296.94 312.16 290.08 311.68 C 288.76 309.54 289.02 306.74 288.49 304.32 C 283.73 275.17 279.19 245.97 274.37 216.84 C 274.90 213.97 277.29 211.67 277.88 208.73 Z" />
<path fill="#eec8a8" opacity="1.00" d=" M 336.97 186.43 C 337.76 187.17 338.52 187.93 339.27 188.71 C 339.18 229.15 339.48 269.59 339.17 310.02 C 345.74 310.61 352.35 310.23 358.95 310.36 C 374.22 310.25 389.49 310.55 404.76 310.17 C 413.94 310.33 423.14 310.47 432.32 310.24 C 432.48 303.09 432.39 295.95 432.33 288.80 C 432.45 272.86 432.53 256.92 432.37 240.98 C 432.54 239.68 431.98 237.10 434.17 237.32 C 434.53 238.52 434.72 239.75 434.73 241.02 C 434.74 255.44 434.55 269.87 434.86 284.30 C 434.62 293.61 434.97 302.94 434.20 312.24 C 416.13 312.78 398.05 311.99 379.98 312.17 C 365.72 312.00 351.46 312.39 337.20 312.04 C 336.96 309.71 336.85 307.37 336.83 305.03 C 336.99 265.50 336.66 225.96 336.97 186.43 Z" />
<path fill="#ffffff" opacity="1.00" d=" M 339.27 188.71 C 347.53 188.58 355.79 188.70 364.06 188.64 C 366.13 188.51 368.10 189.20 369.96 190.05 C 365.35 202.90 366.51 217.38 372.21 229.69 C 374.73 235.13 377.55 240.75 382.17 244.72 C 385.39 243.25 388.05 240.86 390.93 238.87 C 406.99 227.28 422.97 215.56 439.14 204.11 C 440.49 203.07 441.69 201.84 442.88 200.60 C 439.68 196.62 436.40 192.72 432.90 189.01 C 444.51 188.53 456.15 188.46 467.75 188.96 C 468.11 205.55 467.55 222.15 467.88 238.74 C 458.48 252.09 450.26 266.27 440.00 279.00 C 438.47 280.93 436.68 282.64 434.86 284.30 C 434.55 269.87 434.74 255.44 434.73 241.02 C 434.72 239.75 434.53 238.52 434.17 237.32 C 431.98 237.10 432.54 239.68 432.37 240.98 C 432.53 256.92 432.45 272.86 432.33 288.80 C 427.13 291.60 423.62 296.47 418.98 299.98 C 414.46 303.69 409.04 306.16 404.76 310.17 C 389.49 310.55 374.22 310.25 358.95 310.36 C 352.35 310.23 345.74 310.61 339.17 310.02 C 339.48 269.59 339.18 229.15 339.27 188.71 M 421.83 236.60 C 421.24 241.28 422.62 246.29 420.68 250.72 C 420.43 251.84 418.42 254.71 420.97 254.41 C 425.27 249.89 424.14 242.80 423.99 237.08 C 423.45 236.96 422.37 236.72 421.83 236.60 M 415.57 246.97 C 415.57 256.59 415.59 266.22 415.64 275.84 C 412.44 276.18 409.22 276.27 406.01 276.22 C 385.40 276.25 364.78 276.17 344.18 276.27 C 344.02 276.76 343.69 277.73 343.53 278.22 C 369.67 278.71 395.83 278.23 421.97 278.46 C 423.89 278.17 427.66 279.30 427.07 276.15 C 424.07 276.13 421.08 276.08 418.09 275.97 C 417.59 266.09 418.08 256.18 417.51 246.30 C 417.74 244.34 414.85 245.57 415.57 246.97 Z" />
<path fill="#335a8f" opacity="1.00" d=" M 487.41 193.16 C 488.82 191.45 491.12 194.12 489.43 195.39 C 488.08 196.71 486.17 194.39 487.41 193.16 Z" />
<path fill="#f1cbb2" opacity="1.00" d=" M 806.88 194.15 C 817.52 194.33 828.17 194.17 838.81 194.25 C 838.67 198.44 838.70 202.64 839.09 206.82 C 843.09 206.16 847.10 205.51 851.12 204.99 C 853.05 217.61 853.52 230.42 855.91 242.99 C 861.05 243.13 866.20 242.97 871.33 243.33 C 866.21 244.01 861.04 243.42 855.90 243.85 C 855.72 248.87 855.68 253.90 855.98 258.92 C 879.66 259.29 903.35 259.03 927.03 259.33 C 929.30 259.37 931.57 259.02 933.80 258.52 C 935.09 258.84 936.38 259.17 937.69 259.51 C 937.76 268.34 937.38 277.18 937.89 286.01 C 960.59 286.33 983.29 286.18 1006.00 286.18 C 1037.08 286.02 1068.17 286.59 1099.25 286.12 C 1104.23 286.11 1109.23 286.34 1114.23 286.14 C 1114.36 286.92 1115.04 288.43 1113.64 288.48 C 1110.64 288.78 1107.63 288.60 1104.64 288.67 C 1090.16 288.55 1075.68 288.72 1061.21 288.77 C 965.58 288.62 869.96 288.65 774.33 288.69 C 774.31 288.04 774.26 286.73 774.23 286.07 C 785.05 285.99 795.88 286.42 806.70 285.92 C 806.74 255.33 806.40 224.73 806.88 194.15 M 814.03 205.04 C 813.76 221.74 814.23 238.44 813.89 255.14 C 819.81 255.51 825.76 255.53 831.68 255.07 C 831.66 238.40 831.57 221.73 831.72 205.06 C 825.84 204.59 819.92 204.79 814.03 205.04 M 839.33 218.92 C 839.20 229.95 838.41 240.98 839.24 252.00 C 838.63 263.31 839.19 274.63 839.11 285.95 C 842.03 286.10 844.97 286.10 847.91 285.96 C 847.00 273.22 844.52 260.67 843.25 247.98 C 842.47 238.23 841.17 228.52 839.33 218.92 M 821.24 266.34 C 816.91 267.33 815.34 273.46 818.64 276.40 C 821.96 280.16 829.67 277.31 828.87 272.04 C 829.05 268.11 824.90 265.24 821.24 266.34 M 920.35 266.45 C 916.01 267.20 913.53 273.10 916.56 276.48 C 918.87 280.19 924.80 279.32 926.75 275.71 C 929.61 271.61 925.07 265.40 920.35 266.45 Z" />
<path fill="#517fbe" opacity="1.00" d=" M 644.96 198.81 C 648.57 201.50 652.44 204.13 654.86 208.03 C 655.92 209.62 656.76 211.40 658.10 212.80 C 660.11 213.15 662.15 213.14 664.19 213.29 C 661.64 213.54 659.25 214.47 656.94 215.52 C 655.47 215.48 654.00 215.41 652.55 215.36 C 649.79 212.12 646.75 209.13 643.98 205.90 C 644.49 203.57 644.76 201.19 644.96 198.81 Z" />
<path fill="#4069a4" opacity="1.00" d=" M 485.80 200.29 C 496.72 201.73 507.35 205.00 518.36 206.06 C 517.85 207.99 515.47 207.18 514.07 207.24 C 506.99 206.22 500.02 204.54 492.99 203.20 C 490.50 202.55 487.49 202.51 485.80 200.29 Z" />
<path fill="#faeadc" opacity="1.00" d=" M 814.03 205.04 C 819.92 204.79 825.84 204.59 831.72 205.06 C 831.57 221.73 831.66 238.40 831.68 255.07 C 825.76 255.53 819.81 255.51 813.89 255.14 C 814.23 238.44 813.76 221.74 814.03 205.04 Z" />
<path fill="#f9eadb" opacity="1.00" d=" M 636.60 222.07 C 639.65 216.97 642.56 211.71 643.98 205.90 C 646.75 209.13 649.79 212.12 652.55 215.36 C 655.83 219.90 655.47 225.76 655.80 231.07 C 656.00 241.73 655.52 252.39 654.86 263.04 C 654.36 271.39 654.39 279.81 652.88 288.07 C 652.59 290.09 651.62 291.92 650.44 293.56 C 649.67 293.88 648.90 294.19 648.14 294.49 C 645.55 292.57 642.37 292.23 639.25 292.24 C 638.47 289.40 637.70 286.56 636.94 283.72 C 643.82 279.99 648.23 272.32 648.39 264.55 C 649.15 253.31 644.88 242.56 640.49 232.44 C 639.11 229.03 636.28 225.95 636.60 222.07 Z" />
<path fill="#f99683" opacity="1.00" d=" M 614.07 213.01 C 615.43 211.40 616.58 208.98 618.96 208.81 C 622.41 208.68 625.94 209.46 628.99 211.11 C 632.97 213.62 632.65 219.56 636.60 222.07 C 636.28 225.95 639.11 229.03 640.49 232.44 C 644.88 242.56 649.15 253.31 648.39 264.55 C 647.64 263.01 647.05 261.40 646.53 259.78 C 642.33 257.49 637.57 256.17 633.96 252.90 C 635.18 250.70 637.05 247.58 634.46 245.58 C 630.68 242.84 627.13 239.83 623.69 236.68 C 624.41 241.95 629.81 244.11 633.54 246.99 C 628.14 248.73 622.72 245.71 618.82 242.15 C 615.72 239.20 611.53 238.04 607.55 236.81 C 608.99 235.93 612.08 234.60 610.45 232.55 C 609.34 230.34 606.88 231.38 605.06 231.83 C 603.62 229.79 602.23 227.72 600.86 225.65 C 606.51 222.96 610.59 218.06 614.07 213.01 M 623.84 223.89 C 622.10 225.19 623.79 229.16 626.00 227.88 C 629.20 226.67 632.47 225.68 635.82 224.95 C 635.84 224.24 635.89 222.81 635.91 222.10 C 631.92 220.81 627.22 221.37 623.84 223.89 M 631.84 231.78 C 630.82 234.17 631.24 238.74 634.59 238.68 C 637.72 236.79 635.18 231.71 631.84 231.78 Z" />
<path fill="#f3d2b9" opacity="1.00" d=" M 983.80 210.98 C 1006.53 210.76 1029.27 210.98 1052.00 210.87 C 1051.92 212.12 1051.85 213.37 1051.79 214.63 C 1029.21 214.62 1006.62 214.57 984.04 214.67 C 983.95 213.44 983.87 212.21 983.80 210.98 Z" />
<path fill="#4574b4" opacity="1.00" d=" M 664.19 213.29 C 665.47 213.40 666.74 213.58 668.01 213.84 C 665.63 215.55 662.97 216.78 660.28 217.91 C 663.51 219.43 667.53 220.16 669.52 223.46 C 666.40 222.70 663.37 221.69 660.29 220.85 C 660.65 222.50 661.02 224.14 661.36 225.80 C 661.15 227.12 660.94 228.44 660.72 229.76 C 659.58 229.72 658.46 229.68 657.35 229.64 C 656.96 230.00 656.19 230.71 655.80 231.07 C 655.47 225.76 655.83 219.90 652.55 215.36 C 654.00 215.41 655.47 215.48 656.94 215.52 C 659.25 214.47 661.64 213.54 664.19 213.29 Z" />
<path fill="#f9eadb" opacity="1.00" d=" M 839.33 218.92 C 841.17 228.52 842.47 238.23 843.25 247.98 C 844.52 260.67 847.00 273.22 847.91 285.96 C 844.97 286.10 842.03 286.10 839.11 285.95 C 839.19 274.63 838.63 263.31 839.24 252.00 C 838.41 240.98 839.20 229.95 839.33 218.92 Z" />
<path fill="#fbe9da" opacity="1.00" d=" M 971.31 221.20 C 977.57 224.02 984.21 225.88 990.56 228.52 C 996.70 231.18 1003.50 230.17 1010.00 230.34 C 1017.24 230.44 1024.48 230.29 1031.72 230.20 L 1031.77 230.85 C 1015.93 231.38 1000.07 230.59 984.24 231.31 C 984.26 232.43 984.28 233.55 984.32 234.67 C 993.11 234.60 1001.90 234.81 1010.69 235.01 C 1016.05 237.39 1021.38 239.87 1026.74 242.25 C 1027.67 242.81 1028.70 242.63 1029.68 242.27 C 1029.40 246.16 1030.62 250.67 1034.49 252.38 C 1038.20 254.57 1042.59 252.87 1045.64 250.34 C 1054.84 255.73 1064.52 260.38 1073.15 266.70 C 1059.11 267.49 1045.03 266.81 1030.97 267.01 C 1011.10 266.89 991.23 267.14 971.37 266.74 C 971.30 251.56 971.39 236.38 971.31 221.20 Z" />
<path fill="#f1d1b5" opacity="1.00" d=" M 983.94 220.84 C 1011.71 220.59 1039.49 220.79 1067.26 220.83 C 1067.28 221.71 1067.32 223.46 1067.34 224.34 C 1039.50 224.44 1011.64 224.48 983.79 224.24 C 983.83 223.39 983.90 221.69 983.94 220.84 Z" />
<path fill="#432825" opacity="1.00" d=" M 623.84 223.89 C 627.22 221.37 631.92 220.81 635.91 222.10 C 635.89 222.81 635.84 224.24 635.82 224.95 C 632.47 225.68 629.20 226.67 626.00 227.88 C 623.79 229.16 622.10 225.19 623.84 223.89 Z" />
<path fill="#f89b87" opacity="1.00" d=" M 579.23 229.26 C 586.60 230.04 594.18 228.90 600.86 225.65 C 602.23 227.72 603.62 229.79 605.06 231.83 C 601.89 233.94 598.29 236.21 596.96 239.97 C 596.12 241.57 598.71 243.68 599.97 242.09 C 602.29 240.04 604.70 238.08 607.55 236.81 C 611.53 238.04 615.72 239.20 618.82 242.15 C 622.72 245.71 628.14 248.73 633.54 246.99 C 635.09 250.19 631.12 251.88 629.47 253.97 C 630.95 253.60 632.45 253.24 633.96 252.90 C 637.57 256.17 642.33 257.49 646.53 259.78 C 647.05 261.40 647.64 263.01 648.39 264.55 C 648.23 272.32 643.82 279.99 636.94 283.72 C 628.91 287.34 619.78 289.47 611.08 287.11 C 605.06 286.03 599.96 282.59 594.59 279.93 C 594.26 279.77 593.60 279.43 593.27 279.27 L 593.94 278.94 C 592.99 276.86 591.92 274.84 590.89 272.81 C 589.23 273.68 587.58 274.57 585.94 275.46 C 582.24 274.82 578.12 274.54 575.34 271.71 C 572.23 269.15 570.80 265.21 570.77 261.27 C 571.56 258.89 572.72 256.28 575.32 255.45 C 578.98 253.74 582.67 256.10 586.06 257.35 C 588.51 252.87 585.18 248.36 584.42 243.89 C 583.53 238.75 581.99 233.73 579.23 229.26 M 608.07 243.10 C 606.27 245.22 607.68 248.91 610.08 249.93 C 614.69 249.88 611.79 241.94 608.07 243.10 M 629.97 264.96 C 626.49 266.19 623.03 264.59 619.64 263.88 C 620.19 265.16 621.16 266.23 622.59 266.51 C 628.57 268.57 636.49 265.32 637.87 258.78 C 634.91 260.45 633.56 264.30 629.97 264.96 M 575.58 262.84 C 577.59 263.21 579.97 262.83 581.62 264.31 C 584.09 265.96 582.05 269.07 581.91 271.33 C 583.34 270.05 584.57 268.49 586.35 267.64 C 585.19 264.98 582.98 262.49 580.05 261.86 C 578.61 261.57 576.22 260.98 575.58 262.84 Z" />
<path fill="#4d7cbd" opacity="1.00" d=" M 661.36 225.80 C 664.10 238.66 665.31 251.84 665.43 264.98 C 665.52 274.15 664.44 284.11 658.55 291.54 C 656.69 294.12 653.27 294.56 650.44 293.56 C 651.62 291.92 652.59 290.09 652.88 288.07 C 654.39 279.81 654.36 271.39 654.86 263.04 C 655.52 252.39 656.00 241.73 655.80 231.07 C 656.19 230.71 656.96 230.00 657.35 229.64 C 658.46 229.68 659.58 229.72 660.72 229.76 C 660.94 228.44 661.15 227.12 661.36 225.80 Z" />
<path fill="#e6ba9b" opacity="1.00" d=" M 860.22 227.25 C 884.43 226.83 908.66 226.63 932.88 227.23 C 932.63 227.63 932.12 228.43 931.87 228.83 C 913.16 228.87 894.44 229.66 875.73 228.89 C 875.52 233.68 875.54 238.48 875.66 243.27 C 895.00 243.56 914.35 243.40 933.70 243.29 C 933.91 248.36 933.86 253.44 933.80 258.52 C 931.57 259.02 929.30 259.37 927.03 259.33 C 903.35 259.03 879.66 259.29 855.98 258.92 C 855.68 253.90 855.72 248.87 855.90 243.85 C 861.04 243.42 866.21 244.01 871.33 243.33 C 871.36 238.51 871.45 233.69 871.23 228.88 C 867.55 228.76 863.87 228.72 860.20 228.73 C 860.20 228.36 860.21 227.62 860.22 227.25 Z" />
<path fill="#432420" opacity="1.00" d=" M 605.06 231.83 C 606.88 231.38 609.34 230.34 610.45 232.55 C 612.08 234.60 608.99 235.93 607.55 236.81 C 604.70 238.08 602.29 240.04 599.97 242.09 C 598.71 243.68 596.12 241.57 596.96 239.97 C 598.29 236.21 601.89 233.94 605.06 231.83 Z" />
<path fill="#f1cfb4" opacity="1.00" d=" M 984.24 231.31 C 1000.07 230.59 1015.93 231.38 1031.77 230.85 C 1031.78 232.11 1031.81 233.36 1031.85 234.62 C 1024.79 234.72 1017.73 234.58 1010.69 235.01 C 1001.90 234.81 993.11 234.60 984.32 234.67 C 984.28 233.55 984.26 232.43 984.24 231.31 Z" />
<path fill="#251611" opacity="1.00" d=" M 631.84 231.78 C 635.18 231.71 637.72 236.79 634.59 238.68 C 631.24 238.74 630.82 234.17 631.84 231.78 Z" />
<path fill="#f3d1b7" opacity="1.00" d=" M 1029.68 242.27 C 1030.88 235.73 1039.61 233.37 1044.42 237.56 C 1048.30 240.62 1048.27 246.47 1045.64 250.34 C 1042.59 252.87 1038.20 254.57 1034.49 252.38 C 1030.62 250.67 1029.40 246.16 1029.68 242.27 M 1035.41 238.45 C 1034.36 239.04 1033.44 239.85 1032.75 240.81 C 1029.68 245.81 1036.56 253.14 1041.59 249.56 C 1045.30 247.99 1045.71 242.61 1043.19 239.82 C 1041.49 237.34 1037.88 237.16 1035.41 238.45 Z" />
<path fill="#f0cfb5" opacity="1.00" d=" M 421.83 236.60 C 422.37 236.72 423.45 236.96 423.99 237.08 C 424.14 242.80 425.27 249.89 420.97 254.41 C 418.42 254.71 420.43 251.84 420.68 250.72 C 422.62 246.29 421.24 241.28 421.83 236.60 Z" />
<path fill="#d65946" opacity="1.00" d=" M 623.69 236.68 C 627.13 239.83 630.68 242.84 634.46 245.58 C 637.05 247.58 635.18 250.70 633.96 252.90 C 632.45 253.24 630.95 253.60 629.47 253.97 C 631.12 251.88 635.09 250.19 633.54 246.99 C 629.81 244.11 624.41 241.95 623.69 236.68 Z" />
<path fill="#ffffff" opacity="1.00" d=" M 1035.41 238.45 C 1037.88 237.16 1041.49 237.34 1043.19 239.82 C 1045.71 242.61 1045.30 247.99 1041.59 249.56 C 1036.56 253.14 1029.68 245.81 1032.75 240.81 C 1033.44 239.85 1034.36 239.04 1035.41 238.45 Z" />
<path fill="#fbe9db" opacity="1.00" d=" M 440.00 279.00 C 450.26 266.27 458.48 252.09 467.88 238.74 C 468.08 239.45 468.49 240.86 468.69 241.57 C 466.62 250.96 463.66 260.30 463.69 270.01 C 463.68 274.95 465.52 279.67 468.02 283.86 C 467.75 297.14 468.30 310.44 467.75 323.73 C 438.10 323.40 408.43 323.99 378.78 323.56 C 385.28 320.32 391.88 317.20 397.99 313.24 C 377.78 312.39 357.52 313.36 337.29 312.71 L 337.20 312.04 C 351.46 312.39 365.72 312.00 379.98 312.17 C 398.05 311.99 416.13 312.78 434.20 312.24 C 434.97 302.94 434.62 293.61 434.86 284.30 C 436.68 282.64 438.47 280.93 440.00 279.00 Z" />
<path fill="#3b2220" opacity="1.00" d=" M 608.07 243.10 C 611.79 241.94 614.69 249.88 610.08 249.93 C 607.68 248.91 606.27 245.22 608.07 243.10 Z" />
<path fill="#f2cbad" opacity="1.00" d=" M 415.57 246.97 C 414.85 245.57 417.74 244.34 417.51 246.30 C 418.08 256.18 417.59 266.09 418.09 275.97 C 421.08 276.08 424.07 276.13 427.07 276.15 C 427.66 279.30 423.89 278.17 421.97 278.46 C 395.83 278.23 369.67 278.71 343.53 278.22 C 343.69 277.73 344.02 276.76 344.18 276.27 C 364.78 276.17 385.40 276.25 406.01 276.22 C 409.22 276.27 412.44 276.18 415.64 275.84 C 415.59 266.22 415.57 256.59 415.57 246.97 Z" />
<path fill="#4574b4" opacity="1.00" d=" M 509.89 259.78 C 510.16 258.50 510.45 257.24 510.70 255.96 C 510.49 257.68 510.45 259.43 510.76 261.16 C 508.21 262.85 505.37 264.11 502.29 264.37 C 504.12 261.87 507.21 261.02 509.89 259.78 Z" />
<path fill="#d55e47" opacity="1.00" d=" M 629.97 264.96 C 633.56 264.30 634.91 260.45 637.87 258.78 C 636.49 265.32 628.57 268.57 622.59 266.51 C 621.16 266.23 620.19 265.16 619.64 263.88 C 623.03 264.59 626.49 266.19 629.97 264.96 Z" />
<path fill="#d05543" opacity="1.00" d=" M 575.58 262.84 C 576.22 260.98 578.61 261.57 580.05 261.86 C 582.98 262.49 585.19 264.98 586.35 267.64 C 584.57 268.49 583.34 270.05 581.91 271.33 C 582.05 269.07 584.09 265.96 581.62 264.31 C 579.97 262.83 577.59 263.21 575.58 262.84 Z" />
<path fill="#4671b0" opacity="1.00" d=" M 503.01 275.27 C 505.56 270.88 509.04 267.07 511.80 262.79 L 512.48 263.83 C 509.98 268.74 506.80 273.38 502.79 277.19 C 502.84 276.71 502.95 275.75 503.01 275.27 Z" />
<path fill="#f9e9d8" opacity="1.00" d=" M 821.24 266.34 C 824.90 265.24 829.05 268.11 828.87 272.04 C 829.67 277.31 821.96 280.16 818.64 276.40 C 815.34 273.46 816.91 267.33 821.24 266.34 Z" />
<path fill="#fbecdc" opacity="1.00" d=" M 920.35 266.45 C 925.07 265.40 929.61 271.61 926.75 275.71 C 924.80 279.32 918.87 280.19 916.56 276.48 C 913.53 273.10 916.01 267.20 920.35 266.45 Z" />
<path fill="#3b2220" opacity="1.00" d=" M 585.94 275.46 C 587.58 274.57 589.23 273.68 590.89 272.81 C 591.92 274.84 592.99 276.86 593.94 278.94 L 593.27 279.27 C 590.80 278.03 588.48 276.52 585.94 275.46 Z" />
<path fill="#ec614b" opacity="1.00" d=" M 594.59 279.93 C 599.96 282.59 605.06 286.03 611.08 287.11 C 619.78 289.47 628.91 287.34 636.94 283.72 C 637.70 286.56 638.47 289.40 639.25 292.24 L 639.33 292.54 C 629.23 296.41 617.75 295.57 608.03 290.99 C 604.06 289.13 600.69 286.13 596.48 284.78 C 595.88 283.15 595.21 281.54 594.59 279.93 Z" />
<path fill="#f69a88" opacity="1.00" d=" M 596.48 284.78 C 600.69 286.13 604.06 289.13 608.03 290.99 C 617.75 295.57 629.23 296.41 639.33 292.54 C 641.86 301.57 642.27 311.01 644.51 320.11 C 644.47 321.41 644.43 322.71 644.42 324.03 C 640.54 320.15 638.14 314.73 633.13 312.08 L 632.34 311.70 C 622.01 306.14 610.25 303.77 600.12 297.86 C 599.55 293.34 597.84 289.09 596.48 284.78 Z" />
<path fill="#fae8da" opacity="1.00" d=" M 470.36 323.63 C 470.59 311.62 469.89 299.60 470.68 287.61 C 471.36 288.44 472.05 289.28 472.75 290.11 C 482.39 302.74 493.34 314.30 504.93 325.16 C 517.69 337.57 530.96 349.49 544.90 360.56 C 539.08 360.91 533.24 361.54 527.60 363.05 C 524.98 363.85 522.53 365.13 520.30 366.71 C 514.68 371.42 512.05 378.78 511.41 385.91 C 510.29 399.93 512.32 413.94 514.26 427.80 C 517.99 453.80 521.23 479.87 524.32 505.96 C 526.36 524.00 528.24 542.07 530.92 560.03 C 533.28 574.87 538.14 590.16 548.91 601.11 C 554.52 606.87 562.13 610.11 569.78 612.17 C 589.86 617.20 610.53 619.00 631.10 620.79 C 631.13 635.65 631.09 650.51 630.91 665.37 C 545.49 665.37 460.06 665.39 374.64 665.38 C 378.64 645.97 381.76 626.37 385.91 607.00 C 385.98 606.82 386.12 606.46 386.19 606.29 C 387.75 606.19 389.32 606.14 390.89 606.12 C 391.19 601.98 391.22 597.82 390.97 593.68 C 380.34 593.41 369.71 593.53 359.08 593.57 C 360.59 590.18 361.94 586.72 363.58 583.38 C 371.74 581.49 379.91 577.81 385.70 571.61 C 389.34 568.12 386.11 562.15 389.68 558.69 C 392.10 556.08 395.89 556.12 399.14 555.60 C 405.04 554.98 410.96 552.36 414.68 547.63 C 417.77 543.91 415.77 537.91 419.84 534.82 C 423.01 532.23 427.38 533.46 431.13 532.99 C 438.07 532.60 445.96 528.98 448.27 521.97 C 449.43 516.66 443.57 513.59 439.10 513.31 C 423.28 512.19 406.51 515.73 393.97 525.87 C 382.20 534.93 374.33 547.99 368.41 561.39 C 366.09 566.93 363.85 572.55 362.61 578.45 C 361.41 583.67 358.98 588.48 357.43 593.59 C 350.20 593.47 342.97 594.15 335.75 593.64 C 333.96 585.58 331.68 577.53 327.71 570.25 C 326.88 568.69 326.03 567.13 325.51 565.43 C 325.09 557.79 319.17 551.79 312.92 548.11 C 306.26 544.21 298.04 544.39 290.92 546.86 C 284.73 548.92 277.98 551.47 274.15 557.07 C 272.45 559.62 271.56 564.51 275.23 565.76 C 281.21 567.32 285.39 560.85 291.05 560.54 C 293.99 562.04 293.87 566.66 297.29 567.58 C 302.68 569.12 307.62 565.23 312.96 565.45 C 316.53 565.89 319.98 566.97 323.55 567.47 C 328.93 575.25 331.53 584.51 333.92 593.56 C 321.27 593.48 308.61 593.28 295.97 593.70 C 295.80 597.86 295.80 602.02 295.96 606.18 C 297.72 606.26 299.49 606.41 301.27 606.47 L 301.46 607.78 C 305.13 626.98 308.92 646.17 312.54 665.39 C 311.11 665.41 309.69 665.43 308.27 665.44 C 283.29 639.64 265.31 607.18 256.55 572.37 C 251.99 553.29 248.94 533.60 250.19 513.94 C 250.17 512.64 249.83 511.42 249.19 510.27 C 250.51 509.27 252.10 507.98 253.87 508.71 C 256.50 511.22 258.35 514.84 262.06 515.94 C 267.25 518.11 272.73 515.97 278.01 515.61 C 282.71 516.47 281.20 522.92 284.71 525.23 C 288.01 527.46 292.21 526.61 295.93 526.44 C 301.83 525.79 307.74 526.61 313.65 526.40 C 330.00 544.93 336.43 569.69 340.19 593.54 C 341.81 593.16 343.44 592.80 345.05 592.36 C 343.97 581.94 343.26 571.47 343.25 561.00 C 342.39 538.07 342.82 515.08 344.81 492.22 C 345.01 489.31 345.38 486.42 346.00 483.57 C 353.88 477.98 364.11 476.87 371.49 470.46 C 375.74 467.08 378.21 461.38 377.03 455.97 C 376.38 451.96 373.16 449.16 371.47 445.63 C 369.82 442.07 372.26 437.62 375.91 436.56 C 381.40 434.60 387.87 434.55 392.35 430.37 C 398.44 424.57 399.05 415.03 396.48 407.43 C 394.99 402.78 391.91 398.13 393.15 393.07 C 393.87 389.93 396.58 387.80 399.40 386.57 C 404.55 384.25 410.41 382.70 414.24 378.24 C 416.80 375.38 418.45 371.04 416.70 367.36 C 415.19 364.03 411.50 362.48 408.07 362.07 C 398.30 360.75 388.31 364.58 381.05 371.04 C 376.65 374.87 375.60 381.27 371.01 384.89 C 366.56 388.44 359.96 384.77 355.68 388.64 C 350.77 393.34 351.02 401.07 353.18 407.04 C 354.88 411.95 356.53 418.23 352.53 422.51 C 349.59 425.81 344.83 424.33 340.98 424.56 C 336.96 424.35 332.98 426.54 331.06 430.09 C 328.03 435.44 328.15 441.95 329.27 447.82 C 331.26 457.67 337.18 466.01 340.54 475.35 C 342.01 479.48 343.76 483.74 343.17 488.22 C 341.03 507.74 340.64 527.40 340.78 547.01 C 340.91 551.73 341.34 556.47 340.57 561.16 C 338.96 547.52 336.14 534.07 333.62 520.58 C 339.24 513.49 341.70 503.79 339.84 494.92 C 338.44 488.00 331.69 483.96 329.68 477.31 C 327.84 471.36 328.28 465.01 327.02 458.95 C 325.27 449.46 320.29 440.34 312.27 434.75 C 308.16 431.94 304.13 428.95 300.79 425.22 C 294.52 418.66 286.25 412.55 276.70 413.30 C 284.80 398.24 294.83 384.05 307.15 372.11 C 319.58 359.31 333.80 348.23 349.33 339.45 C 356.34 334.85 364.34 331.99 371.13 327.04 C 364.35 325.94 357.39 327.46 350.68 326.11 C 359.79 325.41 368.93 325.99 378.04 326.34 C 410.03 326.12 442.02 326.40 474.01 326.33 C 479.73 326.24 485.48 326.72 491.18 325.99 C 491.20 325.48 491.24 324.47 491.26 323.96 C 484.31 323.21 477.32 323.89 470.36 323.63 M 383.59 467.63 C 377.68 473.96 377.60 484.18 370.08 489.20 C 361.79 495.01 360.09 506.75 363.01 515.83 C 353.02 540.54 348.63 567.16 347.22 593.67 L 349.12 593.61 C 350.65 568.06 354.74 542.42 364.04 518.46 C 371.87 519.14 378.68 514.14 383.77 508.72 C 388.15 504.10 391.27 497.65 397.65 495.46 C 401.75 494.23 407.23 495.13 409.82 490.88 C 413.18 486.82 409.87 480.35 413.82 476.72 C 418.40 474.45 423.04 478.79 427.72 477.64 C 429.63 476.79 431.16 475.29 432.44 473.67 C 436.66 476.48 440.91 479.64 445.91 480.88 C 448.23 481.54 451.85 480.92 452.26 478.06 C 451.67 472.08 446.22 468.19 441.25 465.73 C 430.35 459.46 417.49 456.34 404.95 458.15 C 397.24 459.38 389.02 461.67 383.59 467.63 Z" />
<path fill="#fbe9da" opacity="1.00" d=" M 418.98 299.98 C 423.62 296.47 427.13 291.60 432.33 288.80 C 432.39 295.95 432.48 303.09 432.32 310.24 C 423.14 310.47 413.94 310.33 404.76 310.17 C 409.04 306.16 414.46 303.69 418.98 299.98 Z" />
<path fill="#517ebd" opacity="1.00" d=" M 472.99 288.73 C 482.71 298.89 494.19 307.07 504.87 316.14 C 518.04 327.53 532.63 337.09 546.45 347.64 C 554.78 353.91 563.58 359.61 571.14 366.83 C 575.87 371.46 580.88 375.90 584.63 381.41 C 590.87 390.67 594.29 401.48 596.54 412.33 C 600.67 432.99 603.54 453.94 603.96 475.03 C 604.55 487.52 603.44 500.37 607.52 512.42 C 609.57 517.90 614.02 522.64 619.66 524.45 C 623.39 525.69 627.23 526.58 631.10 527.29 C 622.50 529.56 614.08 532.72 606.45 537.34 C 601.29 540.50 596.38 544.04 591.29 547.33 C 589.09 547.35 586.02 547.46 585.22 544.87 C 583.73 539.35 585.13 533.63 586.09 528.14 C 590.90 502.43 592.85 476.13 591.16 450.01 C 589.94 433.17 588.02 416.10 581.80 400.27 C 577.62 390.03 571.53 380.19 562.45 373.62 C 556.55 369.34 550.76 364.91 544.90 360.56 C 530.96 349.49 517.69 337.57 504.93 325.16 C 493.34 314.30 482.39 302.74 472.75 290.11 L 472.99 288.73 Z" />
<path fill="#fcf0e7" opacity="1.00" d=" M 1061.21 288.77 C 1075.68 288.72 1090.16 288.55 1104.64 288.67 C 1107.44 293.09 1112.27 295.49 1115.75 299.28 C 1125.70 308.80 1135.38 318.65 1143.83 329.54 C 1139.98 335.91 1135.55 341.94 1130.89 347.74 C 1129.13 347.20 1127.36 346.69 1125.62 346.17 C 1126.73 343.92 1127.76 341.62 1128.71 339.29 C 1117.82 345.49 1110.82 356.53 1105.65 367.61 C 1102.22 374.74 1100.65 382.51 1098.42 390.04 C 1096.49 378.34 1092.78 366.99 1087.67 356.31 C 1085.24 351.57 1082.82 346.72 1079.12 342.83 C 1084.40 356.74 1086.45 371.53 1088.84 386.13 C 1089.97 394.81 1092.10 403.34 1092.56 412.10 C 1090.83 404.29 1088.33 396.62 1084.93 389.38 C 1081.65 383.13 1077.63 377.23 1073.04 371.87 C 1075.94 379.20 1078.71 386.58 1081.39 394.00 C 1081.87 395.22 1082.37 396.46 1082.88 397.70 C 1082.87 398.24 1082.87 399.33 1082.86 399.87 C 1082.52 399.53 1081.82 398.83 1081.48 398.49 C 1074.58 389.95 1065.78 383.14 1056.16 377.93 C 1065.17 385.88 1072.18 395.79 1078.15 406.15 C 1075.58 409.43 1073.83 413.22 1071.89 416.88 C 1059.54 411.77 1047.21 406.63 1034.76 401.77 C 1038.16 388.63 1043.79 376.15 1047.04 362.99 C 1047.79 360.58 1045.63 359.02 1043.53 358.75 C 1044.60 350.76 1047.53 343.14 1049.36 335.29 C 1052.73 319.64 1057.94 304.44 1061.21 288.77 Z" />
<path fill="#416da8" opacity="1.00" d=" M 649.61 294.76 C 656.74 299.42 661.46 307.12 664.11 315.08 C 659.20 314.88 654.84 312.15 649.95 311.95 C 647.63 315.67 647.15 320.12 645.75 324.20 L 644.42 324.03 C 644.43 322.71 644.47 321.41 644.51 320.11 C 645.82 316.92 646.62 313.48 648.40 310.50 C 648.80 310.35 649.61 310.05 650.01 309.89 C 654.08 310.49 657.88 312.19 661.88 313.11 C 659.69 309.09 657.48 305.04 654.47 301.57 C 652.62 299.47 650.86 297.28 649.61 294.76 Z" />
<path fill="#4270ac" opacity="1.00" d=" M 591.39 311.51 C 595.04 313.84 597.96 317.11 601.58 319.49 C 608.85 324.66 617.00 328.38 625.18 331.85 C 626.82 324.93 627.78 317.44 632.34 311.70 L 633.13 312.08 C 629.68 318.96 628.58 326.64 626.07 333.85 C 614.71 329.80 604.07 323.78 594.63 316.28 C 592.99 315.13 592.00 313.37 591.39 311.51 Z" />
<path fill="#446ca7" opacity="1.00" d=" M 644.89 326.63 C 647.24 327.32 648.18 329.69 649.34 331.60 C 659.26 349.00 666.83 367.72 672.07 387.05 C 677.00 404.73 679.71 422.92 682.17 441.08 C 685.18 464.92 687.01 488.90 687.72 512.92 C 687.66 514.77 688.31 517.12 686.25 518.11 C 685.57 508.41 686.13 498.65 684.95 488.98 C 684.38 473.57 682.39 458.26 680.73 442.95 C 677.99 420.61 674.18 398.30 667.36 376.80 C 662.50 362.01 656.27 347.66 648.79 334.01 C 647.39 331.60 645.95 329.21 644.89 326.63 Z" />
<path fill="#fbe9da" opacity="1.00" d=" M 1130.89 347.74 C 1135.55 341.94 1139.98 335.91 1143.83 329.54 C 1167.76 359.09 1185.34 393.90 1193.76 431.04 C 1204.87 477.78 1201.28 527.29 1186.93 572.92 C 1176.14 606.52 1159.13 638.12 1136.72 665.40 C 1136.27 665.40 1135.37 665.41 1134.92 665.42 C 1127.61 617.39 1120.67 569.30 1113.58 521.24 C 1112.12 512.04 1111.09 502.77 1109.36 493.62 C 1108.61 489.65 1108.12 485.65 1107.63 481.66 C 1126.97 481.76 1146.32 481.69 1165.67 481.68 C 1165.57 476.52 1165.57 471.37 1165.65 466.22 C 1149.38 465.91 1133.10 466.19 1116.82 465.88 C 1119.14 451.33 1121.16 436.71 1122.91 422.08 C 1119.86 421.93 1116.82 421.81 1113.78 421.89 C 1116.01 414.15 1120.14 407.16 1123.99 400.14 C 1129.13 391.29 1135.23 383.05 1141.94 375.33 C 1137.06 377.87 1132.29 380.71 1128.18 384.37 C 1127.38 385.03 1126.59 385.70 1125.82 386.36 C 1123.39 388.14 1121.24 390.24 1119.11 392.33 C 1120.06 390.79 1121.03 389.27 1121.98 387.72 C 1125.23 381.40 1129.11 375.47 1133.11 369.62 C 1123.84 375.67 1116.75 384.79 1111.60 394.49 C 1110.79 396.01 1109.98 397.53 1109.15 399.03 C 1109.60 394.18 1111.36 389.62 1112.56 384.94 C 1115.90 371.72 1119.63 358.48 1125.62 346.17 C 1127.36 346.69 1129.13 347.20 1130.89 347.74 Z" />
<path fill="#6190a6" opacity="1.00" d=" M 1105.65 367.61 C 1110.82 356.53 1117.82 345.49 1128.71 339.29 C 1127.76 341.62 1126.73 343.92 1125.62 346.17 C 1119.63 358.48 1115.90 371.72 1112.56 384.94 C 1111.36 389.62 1109.60 394.18 1109.15 399.03 C 1109.98 397.53 1110.79 396.01 1111.60 394.49 C 1112.05 395.12 1112.95 396.39 1113.41 397.02 C 1107.46 404.21 1104.28 413.12 1102.03 422.05 C 1101.26 422.04 1099.72 422.02 1098.95 422.01 C 1098.93 409.98 1096.21 398.19 1094.46 386.35 C 1092.74 379.07 1092.19 371.25 1088.25 364.73 C 1088.13 368.81 1089.53 372.67 1090.50 376.57 C 1093.92 391.52 1095.92 406.75 1096.96 422.03 C 1096.51 422.04 1095.61 422.05 1095.16 422.06 C 1094.18 418.76 1093.28 415.45 1092.56 412.10 C 1092.10 403.34 1089.97 394.81 1088.84 386.13 C 1086.45 371.53 1084.40 356.74 1079.12 342.83 C 1082.82 346.72 1085.24 351.57 1087.67 356.31 C 1092.78 366.99 1096.49 378.34 1098.42 390.04 C 1100.65 382.51 1102.22 374.74 1105.65 367.61 M 1113.98 361.10 C 1109.46 370.38 1106.31 380.31 1104.57 390.49 C 1103.04 399.97 1101.18 409.49 1101.26 419.14 C 1102.59 415.58 1102.91 411.77 1103.41 408.03 C 1104.75 397.12 1106.59 386.25 1109.51 375.64 C 1111.07 370.19 1113.94 365.22 1115.38 359.73 C 1115.03 360.07 1114.33 360.76 1113.98 361.10 Z" />
<path fill="#959dbd" opacity="1.00" d=" M 922.57 363.43 C 923.23 360.38 926.06 358.83 929.01 358.81 C 923.83 372.39 919.97 386.44 915.22 400.18 C 908.62 419.83 902.55 439.64 895.88 459.26 C 931.91 459.55 967.94 459.21 1003.98 459.34 C 1008.33 459.37 1012.70 459.30 1017.06 459.17 C 1016.92 460.36 1016.77 461.55 1016.59 462.74 C 1016.10 464.82 1013.47 463.91 1011.96 464.25 C 972.30 464.11 932.64 464.46 892.99 464.06 C 893.64 463.40 894.31 462.74 894.98 462.09 C 893.32 460.62 891.22 459.93 889.01 460.09 C 869.01 459.87 849.00 459.80 829.00 460.02 C 826.62 460.04 824.28 460.43 821.98 460.93 C 821.87 458.80 821.77 456.60 822.59 454.60 C 826.57 453.21 830.92 454.09 835.06 453.90 C 854.38 453.76 873.70 454.04 893.02 454.10 C 902.75 423.84 912.80 393.67 922.57 363.43 Z" />
<path fill="#d0d3ea" opacity="1.00" d=" M 929.01 358.81 C 967.18 358.52 1005.36 358.70 1043.53 358.75 C 1045.63 359.02 1047.79 360.58 1047.04 362.99 C 1043.79 376.15 1038.16 388.63 1034.76 401.77 C 1029.23 421.01 1023.01 440.05 1017.06 459.17 C 1012.70 459.30 1008.33 459.37 1003.98 459.34 C 967.94 459.21 931.91 459.55 895.88 459.26 C 902.55 439.64 908.62 419.83 915.22 400.18 C 919.97 386.44 923.83 372.39 929.01 358.81 M 974.25 400.34 C 966.86 401.91 961.46 412.65 967.38 418.50 C 973.45 422.55 981.33 416.41 982.34 410.03 C 984.04 405.05 979.80 398.87 974.25 400.34 Z" />
<path fill="#1b394e" opacity="1.00" d=" M 1113.98 361.10 C 1114.33 360.76 1115.03 360.07 1115.38 359.73 C 1113.94 365.22 1111.07 370.19 1109.51 375.64 C 1106.59 386.25 1104.75 397.12 1103.41 408.03 C 1102.91 411.77 1102.59 415.58 1101.26 419.14 C 1101.18 409.49 1103.04 399.97 1104.57 390.49 C 1106.31 380.31 1109.46 370.38 1113.98 361.10 Z" />
<path fill="#ce521f" opacity="1.00" d=" M 527.60 363.05 C 533.24 361.54 539.08 360.91 544.90 360.56 C 550.76 364.91 556.55 369.34 562.45 373.62 C 571.53 380.19 577.62 390.03 581.80 400.27 C 588.02 416.10 589.94 433.17 591.16 450.01 C 592.85 476.13 590.90 502.43 586.09 528.14 C 585.13 533.63 583.73 539.35 585.22 544.87 C 586.02 547.46 589.09 547.35 591.29 547.33 C 591.31 562.69 599.71 577.66 613.09 585.32 C 611.36 586.77 610.00 588.60 610.23 590.97 C 608.80 591.46 607.35 591.95 605.91 592.40 C 594.69 590.39 583.28 588.33 573.01 583.16 C 570.43 580.03 568.05 576.49 567.58 572.37 C 566.65 564.83 567.15 557.21 567.53 549.65 C 569.12 525.32 573.52 501.26 575.04 476.91 C 576.30 450.41 575.17 422.73 563.47 398.40 C 559.08 390.18 554.81 381.59 547.86 375.18 C 545.09 372.60 542.44 369.88 539.43 367.57 C 536.03 364.89 531.63 364.25 527.60 363.05 Z" />
<path fill="#4c7486" opacity="1.00" d=" M 381.05 371.04 C 388.31 364.58 398.30 360.75 408.07 362.07 C 411.50 362.48 415.19 364.03 416.70 367.36 C 418.45 371.04 416.80 375.38 414.24 378.24 C 410.41 382.70 404.55 384.25 399.40 386.57 C 396.58 387.80 393.87 389.93 393.15 393.07 C 391.91 398.13 394.99 402.78 396.48 407.43 C 399.05 415.03 398.44 424.57 392.35 430.37 C 387.87 434.55 381.40 434.60 375.91 436.56 C 372.26 437.62 369.82 442.07 371.47 445.63 C 373.16 449.16 376.38 451.96 377.03 455.97 C 378.21 461.38 375.74 467.08 371.49 470.46 C 364.11 476.87 353.88 477.98 346.00 483.57 C 346.18 480.38 346.17 477.17 346.79 474.03 C 349.06 462.25 350.96 450.34 354.90 438.98 C 357.84 429.61 361.29 420.39 365.70 411.61 C 369.67 403.93 374.67 396.84 379.93 389.99 C 384.67 383.77 390.76 378.75 397.06 374.19 C 398.42 373.21 399.54 371.95 400.56 370.62 C 397.02 371.04 394.44 373.60 391.77 375.68 C 375.50 389.01 364.09 407.47 357.05 427.14 C 349.41 446.68 345.42 467.43 343.17 488.22 C 343.76 483.74 342.01 479.48 340.54 475.35 C 337.18 466.01 331.26 457.67 329.27 447.82 C 328.15 441.95 328.03 435.44 331.06 430.09 C 332.98 426.54 336.96 424.35 340.98 424.56 C 344.83 424.33 349.59 425.81 352.53 422.51 C 356.53 418.23 354.88 411.95 353.18 407.04 C 351.02 401.07 350.77 393.34 355.68 388.64 C 359.96 384.77 366.56 388.44 371.01 384.89 C 375.60 381.27 376.65 374.87 381.05 371.04 Z" />
<path fill="#e86e2d" opacity="1.00" d=" M 520.30 366.71 C 522.53 365.13 524.98 363.85 527.60 363.05 C 531.63 364.25 536.03 364.89 539.43 367.57 C 542.44 369.88 545.09 372.60 547.86 375.18 C 554.81 381.59 559.08 390.18 563.47 398.40 C 575.17 422.73 576.30 450.41 575.04 476.91 C 573.52 501.26 569.12 525.32 567.53 549.65 C 567.15 557.21 566.65 564.83 567.58 572.37 C 568.05 576.49 570.43 580.03 573.01 583.16 C 564.48 580.40 559.42 572.18 557.19 563.95 C 555.20 556.23 554.19 548.29 553.54 540.36 C 551.19 516.25 549.26 492.09 546.05 468.07 C 542.77 442.41 539.24 416.79 536.60 391.06 C 535.82 384.72 536.36 378.05 534.01 372.02 C 531.63 366.72 525.14 367.09 520.30 366.71 Z" />
<path fill="#304e6a" opacity="1.00" d=" M 1088.25 364.73 C 1092.19 371.25 1092.74 379.07 1094.46 386.35 C 1096.21 398.19 1098.93 409.98 1098.95 422.01 C 1098.45 422.01 1097.45 422.02 1096.96 422.03 C 1095.92 406.75 1093.92 391.52 1090.50 376.57 C 1089.53 372.67 1088.13 368.81 1088.25 364.73 Z" />
<path fill="#f59752" opacity="1.00" d=" M 511.41 385.91 C 512.05 378.78 514.68 371.42 520.30 366.71 C 525.14 367.09 531.63 366.72 534.01 372.02 C 536.36 378.05 535.82 384.72 536.60 391.06 C 539.24 416.79 542.77 442.41 546.05 468.07 C 549.26 492.09 551.19 516.25 553.54 540.36 C 554.19 548.29 555.20 556.23 557.19 563.95 C 559.42 572.18 564.48 580.40 573.01 583.16 C 583.28 588.33 594.69 590.39 605.91 592.40 C 619.51 594.91 633.10 597.62 646.38 601.52 C 654.47 603.63 662.45 607.60 667.49 614.48 C 669.44 616.91 669.95 620.04 670.40 623.04 C 660.38 622.65 650.32 622.72 640.34 621.53 C 637.26 621.26 634.17 621.07 631.10 620.79 C 610.53 619.00 589.86 617.20 569.78 612.17 C 562.13 610.11 554.52 606.87 548.91 601.11 C 538.14 590.16 533.28 574.87 530.92 560.03 C 528.24 542.07 526.36 524.00 524.32 505.96 C 521.23 479.87 517.99 453.80 514.26 427.80 C 512.32 413.94 510.29 399.93 511.41 385.91 Z" />
<path fill="#4b758d" opacity="1.00" d=" M 1111.60 394.49 C 1116.75 384.79 1123.84 375.67 1133.11 369.62 C 1129.11 375.47 1125.23 381.40 1121.98 387.72 C 1120.81 387.76 1119.54 387.72 1118.88 388.86 C 1116.73 391.35 1115.27 394.33 1113.41 397.02 C 1112.95 396.39 1112.05 395.12 1111.60 394.49 Z" />
<path fill="#1b394e" opacity="1.00" d=" M 391.77 375.68 C 394.44 373.60 397.02 371.04 400.56 370.62 C 399.54 371.95 398.42 373.21 397.06 374.19 C 390.76 378.75 384.67 383.77 379.93 389.99 C 374.67 396.84 369.67 403.93 365.70 411.61 C 361.29 420.39 357.84 429.61 354.90 438.98 C 350.96 450.34 349.06 462.25 346.79 474.03 C 346.17 477.17 346.18 480.38 346.00 483.57 C 345.38 486.42 345.01 489.31 344.81 492.22 C 342.82 515.08 342.39 538.07 343.25 561.00 C 343.26 571.47 343.97 581.94 345.05 592.36 C 343.44 592.80 341.81 593.16 340.19 593.54 C 336.43 569.69 330.00 544.93 313.65 526.40 C 309.93 521.47 304.88 517.80 300.38 513.63 C 288.91 505.18 275.49 498.10 260.95 497.75 C 256.16 497.62 251.02 498.08 247.04 501.01 C 244.86 502.36 242.94 504.56 240.18 504.55 C 242.44 499.59 248.05 497.77 252.94 496.62 C 261.22 494.49 269.79 496.63 277.66 499.31 C 292.60 504.12 305.09 514.32 315.87 525.43 C 325.37 536.96 332.03 550.61 336.12 564.94 C 339.06 573.84 339.77 583.30 342.51 592.23 C 340.74 568.32 336.24 544.70 331.61 521.21 C 328.08 503.56 322.27 486.42 314.98 469.98 C 308.75 456.88 301.34 444.20 291.54 433.43 C 289.20 430.43 285.71 428.17 284.57 424.38 C 293.04 430.19 298.66 439.21 304.58 447.44 C 319.20 469.50 327.45 495.04 333.62 520.58 C 336.14 534.07 338.96 547.52 340.57 561.16 C 341.34 556.47 340.91 551.73 340.78 547.01 C 340.64 527.40 341.03 507.74 343.17 488.22 C 345.42 467.43 349.41 446.68 357.05 427.14 C 364.09 407.47 375.50 389.01 391.77 375.68 Z" />
<path fill="#5c899b" opacity="1.00" d=" M 1073.04 371.87 C 1077.63 377.23 1081.65 383.13 1084.93 389.38 C 1084.67 391.16 1084.70 393.05 1083.88 394.70 C 1083.49 394.42 1082.69 393.85 1082.29 393.56 C 1082.07 393.67 1081.62 393.89 1081.39 394.00 C 1078.71 386.58 1075.94 379.20 1073.04 371.87 Z" />
<path fill="#477388" opacity="1.00" d=" M 1141.94 375.33 C 1135.23 383.05 1129.13 391.29 1123.99 400.14 C 1123.36 400.07 1122.09 399.93 1121.45 399.86 C 1121.51 398.74 1121.59 397.63 1121.70 396.53 C 1123.78 393.64 1126.34 391.10 1128.18 388.04 C 1128.96 386.92 1128.23 385.55 1128.18 384.37 C 1132.29 380.71 1137.06 377.87 1141.94 375.33 Z" />
<path fill="#548096" opacity="1.00" d=" M 1056.16 377.93 C 1065.78 383.14 1074.58 389.95 1081.48 398.49 C 1081.00 398.92 1080.06 399.79 1079.58 400.22 C 1078.44 399.12 1077.22 398.11 1076.02 397.11 C 1076.97 400.78 1079.02 404.00 1081.20 407.06 C 1084.43 411.70 1086.42 417.02 1089.03 422.01 C 1087.73 421.96 1086.44 421.91 1085.17 421.87 C 1083.47 416.37 1081.12 411.08 1078.15 406.15 C 1072.18 395.79 1065.17 385.88 1056.16 377.93 Z" />
<path fill="#2d526a" opacity="1.00" d=" M 1125.82 386.36 C 1126.59 385.70 1127.38 385.03 1128.18 384.37 C 1128.23 385.55 1128.96 386.92 1128.18 388.04 C 1126.34 391.10 1123.78 393.64 1121.70 396.53 C 1114.92 403.60 1111.42 412.87 1108.55 422.05 C 1107.87 422.05 1106.52 422.06 1105.84 422.06 C 1108.82 412.27 1113.73 403.13 1119.91 394.98 C 1121.95 392.17 1124.89 389.86 1125.82 386.36 Z" />
<path fill="#2d526a" opacity="1.00" d=" M 1118.88 388.86 C 1119.54 387.72 1120.81 387.76 1121.98 387.72 C 1121.03 389.27 1120.06 390.79 1119.11 392.33 C 1115.85 395.55 1114.08 399.83 1111.78 403.71 C 1108.42 409.50 1106.08 415.79 1103.81 422.06 C 1103.37 422.06 1102.47 422.05 1102.03 422.05 C 1104.28 413.12 1107.46 404.21 1113.41 397.02 C 1115.27 394.33 1116.73 391.35 1118.88 388.86 Z" />
<path fill="#68929e" opacity="1.00" d=" M 1119.11 392.33 C 1121.24 390.24 1123.39 388.14 1125.82 386.36 C 1124.89 389.86 1121.95 392.17 1119.91 394.98 C 1113.73 403.13 1108.82 412.27 1105.84 422.06 C 1105.34 422.06 1104.32 422.06 1103.81 422.06 C 1106.08 415.79 1108.42 409.50 1111.78 403.71 C 1114.08 399.83 1115.85 395.55 1119.11 392.33 Z" />
<path fill="#3e697c" opacity="1.00" d=" M 1083.88 394.70 C 1084.70 393.05 1084.67 391.16 1084.93 389.38 C 1088.33 396.62 1090.83 404.29 1092.56 412.10 C 1093.28 415.45 1094.18 418.76 1095.16 422.06 C 1094.63 422.06 1093.58 422.07 1093.06 422.08 C 1090.44 413.66 1087.09 405.45 1082.88 397.70 C 1082.37 396.46 1081.87 395.22 1081.39 394.00 C 1081.62 393.89 1082.07 393.67 1082.29 393.56 C 1082.69 393.85 1083.49 394.42 1083.88 394.70 Z" />
<path fill="#335c73" opacity="1.00" d=" M 1076.02 397.11 C 1077.22 398.11 1078.44 399.12 1079.58 400.22 C 1084.49 406.88 1088.75 414.15 1091.26 422.07 C 1090.70 422.05 1089.59 422.02 1089.03 422.01 C 1086.42 417.02 1084.43 411.70 1081.20 407.06 C 1079.02 404.00 1076.97 400.78 1076.02 397.11 Z" />
<path fill="#568599" opacity="1.00" d=" M 1108.55 422.05 C 1111.42 412.87 1114.92 403.60 1121.70 396.53 C 1121.59 397.63 1121.51 398.74 1121.45 399.86 C 1122.09 399.93 1123.36 400.07 1123.99 400.14 C 1120.14 407.16 1116.01 414.15 1113.78 421.89 C 1112.02 421.94 1110.27 422.01 1108.55 422.05 Z" />
<path fill="#68929e" opacity="1.00" d=" M 1082.88 397.70 C 1087.09 405.45 1090.44 413.66 1093.06 422.08 C 1092.61 422.08 1091.71 422.07 1091.26 422.07 C 1088.75 414.15 1084.49 406.88 1079.58 400.22 C 1080.06 399.79 1081.00 398.92 1081.48 398.49 C 1081.82 398.83 1082.52 399.53 1082.86 399.87 C 1082.87 399.33 1082.87 398.24 1082.88 397.70 Z" />
<path fill="#ffffff" opacity="1.00" d=" M 974.25 400.34 C 979.80 398.87 984.04 405.05 982.34 410.03 C 981.33 416.41 973.45 422.55 967.38 418.50 C 961.46 412.65 966.86 401.91 974.25 400.34 Z" />
<path fill="#6899b0" opacity="1.00" d=" M 269.42 423.93 C 267.73 418.93 271.46 413.54 276.70 413.30 C 286.25 412.55 294.52 418.66 300.79 425.22 C 304.13 428.95 308.16 431.94 312.27 434.75 C 320.29 440.34 325.27 449.46 327.02 458.95 C 328.28 465.01 327.84 471.36 329.68 477.31 C 331.69 483.96 338.44 488.00 339.84 494.92 C 341.70 503.79 339.24 513.49 333.62 520.58 C 327.45 495.04 319.20 469.50 304.58 447.44 C 298.66 439.21 293.04 430.19 284.57 424.38 C 285.71 428.17 289.20 430.43 291.54 433.43 C 301.34 444.20 308.75 456.88 314.98 469.98 C 322.27 486.42 328.08 503.56 331.61 521.21 C 326.12 518.99 323.06 513.77 319.72 509.23 C 315.94 503.91 308.56 502.51 305.31 496.72 C 302.54 491.79 307.93 486.12 304.69 481.31 C 301.12 475.84 293.78 474.22 290.55 468.40 C 287.71 464.03 288.70 458.67 289.51 453.87 C 290.58 448.10 285.57 443.71 281.57 440.44 C 275.89 436.44 270.97 430.85 269.42 423.93 Z" />
<path fill="#f17e38" opacity="1.00" d=" M 1074.61 421.86 C 1078.12 421.77 1081.64 421.73 1085.17 421.87 C 1086.44 421.91 1087.73 421.96 1089.03 422.01 C 1089.59 422.02 1090.70 422.05 1091.26 422.07 C 1091.71 422.07 1092.61 422.08 1093.06 422.08 C 1093.58 422.07 1094.63 422.06 1095.16 422.06 C 1095.61 422.05 1096.51 422.04 1096.96 422.03 C 1097.45 422.02 1098.45 422.01 1098.95 422.01 C 1099.72 422.02 1101.26 422.04 1102.03 422.05 C 1102.47 422.05 1103.37 422.06 1103.81 422.06 C 1104.32 422.06 1105.34 422.06 1105.84 422.06 C 1106.52 422.06 1107.87 422.05 1108.55 422.05 C 1110.27 422.01 1112.02 421.94 1113.78 421.89 C 1116.82 421.81 1119.86 421.93 1122.91 422.08 C 1121.16 436.71 1119.14 451.33 1116.82 465.88 C 1105.12 466.37 1093.37 466.29 1081.66 465.92 C 1080.06 462.08 1079.74 457.92 1079.23 453.84 C 1077.91 443.14 1075.79 432.56 1074.61 421.86 Z" />
<path fill="#fae9da" opacity="1.00" d=" M 269.42 423.93 C 270.97 430.85 275.89 436.44 281.57 440.44 C 285.57 443.71 290.58 448.10 289.51 453.87 C 288.70 458.67 287.71 464.03 290.55 468.40 C 293.78 474.22 301.12 475.84 304.69 481.31 C 307.93 486.12 302.54 491.79 305.31 496.72 C 308.56 502.51 315.94 503.91 319.72 509.23 C 323.06 513.77 326.12 518.99 331.61 521.21 C 336.24 544.70 340.74 568.32 342.51 592.23 C 339.77 583.30 339.06 573.84 336.12 564.94 C 332.03 550.61 325.37 536.96 315.87 525.43 C 316.02 517.48 311.68 510.25 306.12 504.88 C 302.48 501.03 297.67 498.64 293.64 495.26 C 290.52 492.51 286.36 490.59 282.14 491.63 C 277.45 492.72 272.66 492.18 268.06 490.96 C 262.74 489.50 257.10 490.32 252.09 492.45 C 251.18 487.93 252.23 483.39 252.97 478.93 C 255.84 462.83 259.88 446.78 266.82 431.91 C 268.00 429.37 269.17 426.76 269.42 423.93 Z" />
<path fill="#689ab1" opacity="1.00" d=" M 383.59 467.63 C 389.02 461.67 397.24 459.38 404.95 458.15 C 417.49 456.34 430.35 459.46 441.25 465.73 C 437.50 467.37 434.61 470.25 432.44 473.67 C 431.16 475.29 429.63 476.79 427.72 477.64 C 423.04 478.79 418.40 474.45 413.82 476.72 C 409.87 480.35 413.18 486.82 409.82 490.88 C 407.23 495.13 401.75 494.23 397.65 495.46 C 391.27 497.65 388.15 504.10 383.77 508.72 C 378.68 514.14 371.87 519.14 364.04 518.46 C 367.72 508.69 373.10 499.62 378.91 490.97 C 386.70 480.85 396.63 471.58 409.07 467.71 C 412.71 466.45 416.64 466.44 420.31 465.36 C 420.60 465.00 421.18 464.29 421.47 463.94 C 407.63 464.24 394.66 471.34 385.10 481.05 C 375.58 491.11 368.76 503.33 363.01 515.83 C 360.09 506.75 361.79 495.01 370.08 489.20 C 377.60 484.18 377.68 473.96 383.59 467.63 Z" />
<path fill="#868cae" opacity="1.00" d=" M 821.98 460.93 C 824.28 460.43 826.62 460.04 829.00 460.02 C 849.00 459.80 869.01 459.87 889.01 460.09 C 891.22 459.93 893.32 460.62 894.98 462.09 C 894.31 462.74 893.64 463.40 892.99 464.06 C 871.67 464.33 850.35 464.10 829.03 464.16 C 826.21 464.45 823.77 462.97 821.98 460.93 Z" />
<path fill="#1c2c3e" opacity="1.00" d=" M 385.10 481.05 C 394.66 471.34 407.63 464.24 421.47 463.94 C 421.18 464.29 420.60 465.00 420.31 465.36 C 416.64 466.44 412.71 466.45 409.07 467.71 C 396.63 471.58 386.70 480.85 378.91 490.97 C 373.10 499.62 367.72 508.69 364.04 518.46 C 354.74 542.42 350.65 568.06 349.12 593.61 L 347.22 593.67 C 348.63 567.16 353.02 540.54 363.01 515.83 C 368.76 503.33 375.58 491.11 385.10 481.05 Z" />
<path fill="#2d526a" opacity="1.00" d=" M 432.44 473.67 C 434.61 470.25 437.50 467.37 441.25 465.73 C 446.22 468.19 451.67 472.08 452.26 478.06 C 451.85 480.92 448.23 481.54 445.91 480.88 C 440.91 479.64 436.66 476.48 432.44 473.67 Z" />
<path fill="#cbcfe7" opacity="1.00" d=" M 764.30 466.26 C 783.17 465.49 802.07 466.29 820.95 466.13 C 845.64 466.55 870.32 465.99 895.00 466.23 C 957.22 466.31 1019.45 466.27 1081.66 465.92 C 1093.37 466.29 1105.12 466.37 1116.82 465.88 C 1133.10 466.19 1149.38 465.91 1165.65 466.22 C 1165.57 471.37 1165.57 476.52 1165.67 481.68 C 1146.32 481.69 1126.97 481.76 1107.63 481.66 C 1101.04 481.47 1094.45 481.53 1087.86 481.64 C 1005.28 481.72 922.69 481.79 840.11 481.68 C 835.39 481.56 830.67 481.57 825.95 481.53 C 824.19 481.57 822.30 481.44 820.76 482.44 C 816.96 481.18 812.95 481.74 809.05 481.73 C 794.09 481.78 779.13 481.74 764.17 481.76 C 764.15 476.59 764.23 471.43 764.30 466.26 Z" />
<path fill="#7e87a7" opacity="1.00" d=" M 820.76 482.44 C 822.30 481.44 824.19 481.57 825.95 481.53 C 830.67 481.57 835.39 481.56 840.11 481.68 C 839.44 485.54 838.66 489.38 837.89 493.23 C 831.56 493.31 825.22 493.45 818.89 493.25 C 819.53 489.64 820.07 486.03 820.76 482.44 Z" />
<path fill="#fae8da" opacity="1.00" d=" M 840.11 481.68 C 922.69 481.79 1005.28 481.72 1087.86 481.64 C 1088.68 485.72 1089.62 489.79 1090.51 493.86 C 1099.14 537.22 1107.66 580.60 1116.36 623.95 C 1118.75 637.80 1122.21 651.45 1124.22 665.37 C 1029.23 665.44 934.24 665.32 839.24 665.44 C 839.42 663.49 839.57 661.55 839.76 659.61 C 842.42 633.83 844.75 607.94 844.68 582.01 C 844.75 574.34 843.99 566.40 840.27 559.56 C 837.21 553.63 832.31 548.99 827.53 544.47 C 830.99 527.39 834.52 510.33 837.89 493.23 C 838.66 489.38 839.44 485.54 840.11 481.68 Z" />
<path fill="#7e87a6" opacity="1.00" d=" M 1087.86 481.64 C 1094.45 481.53 1101.04 481.47 1107.63 481.66 C 1108.12 485.65 1108.61 489.65 1109.36 493.62 C 1103.07 493.54 1096.78 493.37 1090.51 493.86 C 1089.62 489.79 1088.68 485.72 1087.86 481.64 Z" />
<path fill="#4a6f80" opacity="1.00" d=" M 252.09 492.45 C 257.10 490.32 262.74 489.50 268.06 490.96 C 272.66 492.18 277.45 492.72 282.14 491.63 C 286.36 490.59 290.52 492.51 293.64 495.26 C 297.67 498.64 302.48 501.03 306.12 504.88 C 311.68 510.25 316.02 517.48 315.87 525.43 C 305.09 514.32 292.60 504.12 277.66 499.31 C 269.79 496.63 261.22 494.49 252.94 496.62 C 248.05 497.77 242.44 499.59 240.18 504.55 C 242.94 504.56 244.86 502.36 247.04 501.01 C 251.02 498.08 256.16 497.62 260.95 497.75 C 275.49 498.10 288.91 505.18 300.38 513.63 C 304.88 517.80 309.93 521.47 313.65 526.40 C 307.74 526.61 301.83 525.79 295.93 526.44 C 292.21 526.61 288.01 527.46 284.71 525.23 C 281.20 522.92 282.71 516.47 278.01 515.61 C 272.73 515.97 267.25 518.11 262.06 515.94 C 258.35 514.84 256.50 511.22 253.87 508.71 C 252.10 507.98 250.51 509.27 249.19 510.27 C 246.22 513.22 242.57 517.09 237.93 515.90 C 234.48 515.12 233.59 510.87 234.87 507.98 C 237.33 500.10 245.04 495.69 252.09 492.45 Z" />
<path fill="#b5b9d2" opacity="1.00" d=" M 818.89 493.25 C 825.22 493.45 831.56 493.31 837.89 493.23 C 834.52 510.33 830.99 527.39 827.53 544.47 C 821.97 570.88 816.44 597.30 810.92 623.72 C 809.88 623.92 808.87 624.13 807.85 624.34 C 805.02 621.68 802.39 618.82 799.83 615.91 C 803.80 588.39 808.42 560.97 812.58 533.48 C 814.91 520.11 816.92 506.68 818.89 493.25 Z" />
<path fill="#b4b9d3" opacity="1.00" d=" M 1090.51 493.86 C 1096.78 493.37 1103.07 493.54 1109.36 493.62 C 1111.09 502.77 1112.12 512.04 1113.58 521.24 C 1120.67 569.30 1127.61 617.39 1134.92 665.42 C 1131.35 665.42 1127.78 665.38 1124.22 665.37 C 1122.21 651.45 1118.75 637.80 1116.36 623.95 C 1107.66 580.60 1099.14 537.22 1090.51 493.86 Z" />
<path fill="#12183a" opacity="1.00" d=" M 707.75 511.88 C 714.59 507.24 721.40 502.34 726.95 496.17 C 727.52 496.35 728.65 496.72 729.22 496.91 C 727.50 498.29 725.85 499.76 724.51 501.53 C 719.39 508.34 713.46 514.61 706.74 519.85 C 702.02 523.64 695.72 523.61 690.01 522.99 C 685.49 522.50 680.82 522.61 676.53 520.93 C 687.45 520.48 698.54 518.02 707.75 511.88 Z" />
<path fill="#1f2751" opacity="1.00" d=" M 729.22 496.91 C 757.73 507.25 786.70 517.37 812.58 533.48 C 808.42 560.97 803.80 588.39 799.83 615.91 C 797.18 632.41 794.96 648.98 792.01 665.43 C 795.43 665.44 798.85 665.44 802.28 665.45 C 805.07 651.52 808.09 637.64 810.92 623.72 C 816.44 597.30 821.97 570.88 827.53 544.47 C 832.31 548.99 837.21 553.63 840.27 559.56 C 843.99 566.40 844.75 574.34 844.68 582.01 C 844.75 607.94 842.42 633.83 839.76 659.61 C 839.03 661.96 838.64 664.39 838.56 666.85 C 831.03 666.89 823.50 666.78 815.97 666.87 C 812.09 666.96 807.96 666.19 804.40 668.13 C 799.55 668.57 794.52 668.57 789.66 668.17 C 785.10 666.12 780.01 667.07 775.18 666.82 C 775.82 666.22 776.47 665.63 777.12 665.05 C 780.02 664.83 782.92 664.75 785.83 664.69 C 786.29 645.80 785.60 626.70 789.37 608.09 C 789.92 605.24 789.07 602.32 789.57 599.50 C 790.81 597.69 792.26 596.01 793.32 594.07 C 791.51 594.32 789.72 594.56 787.93 594.86 C 785.54 588.66 784.35 581.96 780.82 576.23 C 775.33 565.78 766.07 557.92 756.14 551.86 C 746.19 545.45 735.22 540.93 724.98 535.05 C 719.38 532.37 714.03 529.13 708.18 526.98 C 708.29 527.55 708.51 528.69 708.62 529.27 C 717.65 532.86 726.05 537.81 734.54 542.51 C 745.00 548.96 755.77 555.92 762.62 566.41 C 767.99 574.81 768.58 585.30 766.63 594.87 C 766.14 599.34 765.67 603.82 764.76 608.23 C 760.37 627.49 753.46 646.05 745.89 664.25 C 745.29 664.85 744.69 665.44 744.09 666.04 C 741.44 665.55 738.77 665.21 736.08 665.21 C 722.07 665.25 708.05 665.18 694.04 665.37 C 690.92 665.44 687.81 665.28 684.71 664.99 C 685.63 657.49 688.29 650.38 690.32 643.15 C 694.16 631.41 696.75 618.42 705.51 609.16 C 704.32 608.27 703.15 607.40 701.98 606.53 C 704.56 604.86 707.40 603.61 709.84 601.73 C 709.85 601.32 709.88 600.50 709.89 600.08 C 705.84 600.80 702.92 604.11 698.95 605.07 C 700.31 601.58 702.96 598.54 703.15 594.67 C 700.41 596.43 698.86 599.36 696.70 601.70 C 693.22 601.05 690.02 599.41 686.67 598.34 C 667.50 592.10 647.34 588.62 629.01 579.99 C 620.70 575.16 611.02 569.70 608.36 559.71 C 606.55 554.41 609.04 548.67 613.29 545.34 C 620.63 539.44 628.65 534.38 637.01 530.04 C 641.37 527.67 646.20 526.24 650.35 523.47 C 658.97 521.84 667.76 521.18 676.53 520.93 C 680.82 522.61 685.49 522.50 690.01 522.99 C 695.72 523.61 702.02 523.64 706.74 519.85 C 713.46 514.61 719.39 508.34 724.51 501.53 C 725.85 499.76 727.50 498.29 729.22 496.91 Z" />
<path fill="#4e7486" opacity="1.00" d=" M 393.97 525.87 C 406.51 515.73 423.28 512.19 439.10 513.31 C 443.57 513.59 449.43 516.66 448.27 521.97 C 445.96 528.98 438.07 532.60 431.13 532.99 C 427.38 533.46 423.01 532.23 419.84 534.82 C 415.77 537.91 417.77 543.91 414.68 547.63 C 410.96 552.36 405.04 554.98 399.14 555.60 C 395.89 556.12 392.10 556.08 389.68 558.69 C 386.11 562.15 389.34 568.12 385.70 571.61 C 379.91 577.81 371.74 581.49 363.58 583.38 C 367.22 573.50 373.19 564.77 379.17 556.18 C 383.64 549.80 389.32 544.39 395.12 539.23 C 404.97 530.47 417.37 524.84 430.25 522.34 C 431.67 522.10 433.09 521.65 433.45 520.07 C 417.84 521.73 403.46 529.70 391.69 539.78 C 381.89 549.49 372.70 560.16 366.65 572.66 C 365.63 574.80 364.31 576.79 362.61 578.45 C 363.85 572.55 366.09 566.93 368.41 561.39 C 374.33 547.99 382.20 534.93 393.97 525.87 Z" />
<path fill="#1a2d3c" opacity="1.00" d=" M 391.69 539.78 C 403.46 529.70 417.84 521.73 433.45 520.07 C 433.09 521.65 431.67 522.10 430.25 522.34 C 417.37 524.84 404.97 530.47 395.12 539.23 C 389.32 544.39 383.64 549.80 379.17 556.18 C 373.19 564.77 367.22 573.50 363.58 583.38 C 361.94 586.72 360.59 590.18 359.08 593.57 L 357.43 593.59 C 358.98 588.48 361.41 583.67 362.61 578.45 C 364.31 576.79 365.63 574.80 366.65 572.66 C 372.70 560.16 381.89 549.49 391.69 539.78 Z" />
<path fill="#131738" opacity="1.00" d=" M 631.10 527.29 C 637.45 525.73 643.86 524.37 650.35 523.47 C 646.20 526.24 641.37 527.67 637.01 530.04 C 628.65 534.38 620.63 539.44 613.29 545.34 C 609.04 548.67 606.55 554.41 608.36 559.71 C 611.02 569.70 620.70 575.16 629.01 579.99 C 647.34 588.62 667.50 592.10 686.67 598.34 C 690.02 599.41 693.22 601.05 696.70 601.70 C 698.86 599.36 700.41 596.43 703.15 594.67 C 702.96 598.54 700.31 601.58 698.95 605.07 C 702.92 604.11 705.84 600.80 709.89 600.08 C 709.88 600.50 709.85 601.32 709.84 601.73 C 707.40 603.61 704.56 604.86 701.98 606.53 C 703.15 607.40 704.32 608.27 705.51 609.16 C 696.75 618.42 694.16 631.41 690.32 643.15 C 688.29 650.38 685.63 657.49 684.71 664.99 C 681.88 664.72 679.03 664.94 676.22 665.25 C 679.72 650.92 683.39 636.60 688.47 622.74 C 690.16 618.18 692.17 613.75 694.03 609.26 C 676.06 604.49 657.76 601.02 639.80 596.20 C 630.53 593.58 621.31 590.42 613.09 585.32 C 599.71 577.66 591.31 562.69 591.29 547.33 C 596.38 544.04 601.29 540.50 606.45 537.34 C 614.08 532.72 622.50 529.56 631.10 527.29 Z" />
<path fill="#121839" opacity="1.00" d=" M 708.18 526.98 C 714.03 529.13 719.38 532.37 724.98 535.05 C 735.22 540.93 746.19 545.45 756.14 551.86 C 766.07 557.92 775.33 565.78 780.82 576.23 C 784.35 581.96 785.54 588.66 787.93 594.86 C 789.72 594.56 791.51 594.32 793.32 594.07 C 792.26 596.01 790.81 597.69 789.57 599.50 C 789.07 602.32 789.92 605.24 789.37 608.09 C 785.60 626.70 786.29 645.80 785.83 664.69 C 782.92 664.75 780.02 664.83 777.12 665.05 C 776.31 665.12 774.68 665.24 773.86 665.30 C 772.90 644.33 772.74 623.25 775.50 602.40 C 775.53 602.08 775.60 601.44 775.63 601.12 C 772.70 598.93 769.62 596.96 766.63 594.87 C 768.58 585.30 767.99 574.81 762.62 566.41 C 755.77 555.92 745.00 548.96 734.54 542.51 C 726.05 537.81 717.65 532.86 708.62 529.27 C 708.51 528.69 708.29 527.55 708.18 526.98 Z" />
<path fill="#4a6f80" opacity="1.00" d=" M 290.92 546.86 C 298.04 544.39 306.26 544.21 312.92 548.11 C 319.17 551.79 325.09 557.79 325.51 565.43 C 321.31 562.68 318.51 558.22 314.01 555.89 C 303.57 550.31 290.31 550.46 280.05 556.41 C 280.52 556.88 281.01 557.32 281.54 557.75 C 295.15 548.79 315.15 553.66 323.55 567.47 C 319.98 566.97 316.53 565.89 312.96 565.45 C 307.62 565.23 302.68 569.12 297.29 567.58 C 293.87 566.66 293.99 562.04 291.05 560.54 C 285.39 560.85 281.21 567.32 275.23 565.76 C 271.56 564.51 272.45 559.62 274.15 557.07 C 277.98 551.47 284.73 548.92 290.92 546.86 Z" />
<path fill="#1a2d3c" opacity="1.00" d=" M 280.05 556.41 C 290.31 550.46 303.57 550.31 314.01 555.89 C 318.51 558.22 321.31 562.68 325.51 565.43 C 326.03 567.13 326.88 568.69 327.71 570.25 C 331.68 577.53 333.96 585.58 335.75 593.64 C 335.29 593.62 334.38 593.58 333.92 593.56 C 331.53 584.51 328.93 575.25 323.55 567.47 C 315.15 553.66 295.15 548.79 281.54 557.75 C 281.01 557.32 280.52 556.88 280.05 556.41 Z" />
<path fill="#db6126" opacity="1.00" d=" M 610.23 590.97 C 610.00 588.60 611.36 586.77 613.09 585.32 C 621.31 590.42 630.53 593.58 639.80 596.20 C 657.76 601.02 676.06 604.49 694.03 609.26 C 692.17 613.75 690.16 618.18 688.47 622.74 C 682.45 623.14 676.42 623.23 670.40 623.04 C 669.95 620.04 669.44 616.91 667.49 614.48 C 662.45 607.60 654.47 603.63 646.38 601.52 C 633.10 597.62 619.51 594.91 605.91 592.40 C 607.35 591.95 608.80 591.46 610.23 590.97 Z" />
<path fill="#ef7b34" opacity="1.00" d=" M 295.97 593.70 C 308.61 593.28 321.27 593.48 333.92 593.56 C 334.38 593.58 335.29 593.62 335.75 593.64 C 342.97 594.15 350.20 593.47 357.43 593.59 L 359.08 593.57 C 369.71 593.53 380.34 593.41 390.97 593.68 C 391.22 597.82 391.19 601.98 390.89 606.12 C 389.32 606.14 387.75 606.19 386.19 606.29 C 386.12 606.46 385.98 606.82 385.91 607.00 C 384.72 606.14 383.41 605.70 381.98 605.68 C 356.64 605.66 331.30 605.76 305.96 605.60 C 304.35 605.57 302.78 605.97 301.27 606.47 C 299.49 606.41 297.72 606.26 295.96 606.18 C 295.80 602.02 295.80 597.86 295.97 593.70 Z" />
<path fill="#d56128" opacity="1.00" d=" M 764.76 608.23 C 765.67 603.82 766.14 599.34 766.63 594.87 C 769.62 596.96 772.70 598.93 775.63 601.12 C 775.60 601.44 775.53 602.08 775.50 602.40 C 772.52 605.30 768.76 607.20 764.76 608.23 Z" />
<path fill="#fae9db" opacity="1.00" d=" M 764.76 608.23 C 768.76 607.20 772.52 605.30 775.50 602.40 C 772.74 623.25 772.90 644.33 773.86 665.30 C 764.35 665.62 754.83 665.18 745.32 665.51 L 745.89 664.25 C 753.46 646.05 760.37 627.49 764.76 608.23 Z" />
<path fill="#c7571f" opacity="1.00" d=" M 301.27 606.47 C 302.78 605.97 304.35 605.57 305.96 605.60 C 331.30 605.76 356.64 605.66 381.98 605.68 C 383.41 605.70 384.72 606.14 385.91 607.00 C 369.64 607.75 353.32 607.11 337.03 607.27 C 325.17 607.46 313.28 606.79 301.46 607.78 L 301.27 606.47 Z" />
<path fill="#eb7530" opacity="1.00" d=" M 301.46 607.78 C 313.28 606.79 325.17 607.46 337.03 607.27 C 353.32 607.11 369.64 607.75 385.91 607.00 C 381.76 626.37 378.64 645.97 374.64 665.38 C 353.94 665.34 333.24 665.26 312.54 665.39 C 308.92 646.17 305.13 626.98 301.46 607.78 Z" />
<path fill="#babdd3" opacity="1.00" d=" M 799.83 615.91 C 802.39 618.82 805.02 621.68 807.85 624.34 C 808.87 624.13 809.88 623.92 810.92 623.72 C 808.09 637.64 805.07 651.52 802.28 665.45 C 798.85 665.44 795.43 665.44 792.01 665.43 C 794.96 648.98 797.18 632.41 799.83 615.91 Z" />
<path fill="#1c2c3e" opacity="1.00" d=" M 631.10 620.79 C 634.17 621.07 637.26 621.26 640.34 621.53 C 640.31 636.19 640.17 650.84 640.46 665.50 C 652.37 665.08 664.30 665.63 676.22 665.25 C 679.03 664.94 681.88 664.72 684.71 664.99 C 687.81 665.28 690.92 665.44 694.04 665.37 C 708.05 665.18 722.07 665.25 736.08 665.21 C 738.77 665.21 741.44 665.55 744.09 666.04 C 744.69 665.44 745.29 664.85 745.89 664.25 L 745.32 665.51 C 754.83 665.18 764.35 665.62 773.86 665.30 C 774.68 665.24 776.31 665.12 777.12 665.05 C 776.47 665.63 775.82 666.22 775.18 666.82 C 780.01 667.07 785.10 666.12 789.66 668.17 C 774.14 668.69 758.60 668.25 743.07 668.37 C 578.37 668.42 413.68 668.41 248.99 668.44 C 230.69 668.35 212.38 668.65 194.09 668.30 C 194.15 667.59 194.26 666.18 194.32 665.47 C 232.30 665.37 270.29 665.35 308.27 665.44 C 309.69 665.43 311.11 665.41 312.54 665.39 C 333.24 665.26 353.94 665.34 374.64 665.38 C 460.06 665.39 545.49 665.37 630.91 665.37 C 631.09 650.51 631.13 635.65 631.10 620.79 Z" />
<path fill="#fae9db" opacity="1.00" d=" M 640.34 621.53 C 650.32 622.72 660.38 622.65 670.40 623.04 C 676.42 623.23 682.45 623.14 688.47 622.74 C 683.39 636.60 679.72 650.92 676.22 665.25 C 664.30 665.63 652.37 665.08 640.46 665.50 C 640.17 650.84 640.31 636.19 640.34 621.53 Z" />
<path fill="#1a2d3c" opacity="1.00" d=" M 838.56 666.85 C 838.64 664.39 839.03 661.96 839.76 659.61 C 839.57 661.55 839.42 663.49 839.24 665.44 C 934.24 665.32 1029.23 665.44 1124.22 665.37 C 1127.78 665.38 1131.35 665.42 1134.92 665.42 C 1135.37 665.41 1136.27 665.40 1136.72 665.40 C 1162.01 665.46 1187.32 665.25 1212.61 665.47 C 1212.55 666.46 1212.49 667.45 1212.44 668.44 C 1096.30 668.42 980.17 668.43 864.04 668.39 C 844.16 668.20 824.26 668.77 804.40 668.13 C 807.96 666.19 812.09 666.96 815.97 666.87 C 823.50 666.78 831.03 666.89 838.56 666.85 Z" />

                    <metadata>
                        <rdf:RDF xmlns:rdf="http://www.w3.org/1999/02/22-rdf-syntax-ns#"
                                xmlns:dc="http://purl.org/dc/elements/1.1/"
                                xmlns:xmp="http://ns.adobe.com/xap/1.0/"
                                xmlns:iptc="http://iptc.org/std/Iptc4xmpCore/1.0/xmlns/">
                            <rdf:Description>
                                <dc:title>A man stretching at his desk in a home office setting, featuring a laptop, plant, and desk lamp. Concept for ergonomic workspace, health break reminders, and remote worker wellness.</dc:title>
                                <dc:description></dc:description>
                                <dc:subject>man</dc:subject>
<dc:subject>stretch</dc:subject>
<dc:subject>desk</dc:subject>
<dc:subject>office</dc:subject>
<dc:subject>home</dc:subject>
<dc:subject>laptop</dc:subject>
<dc:subject>plant</dc:subject>
<dc:subject>lamp</dc:subject>
<dc:subject>work</dc:subject>
<dc:subject>workspace</dc:subject>
<dc:subject>ergonomic</dc:subject>
<dc:subject>health</dc:subject>
<dc:subject>break</dc:subject>
<dc:subject>wellness</dc:subject>
<dc:subject>remote</dc:subject>
<dc:subject>worker</dc:subject>
<dc:subject>posture</dc:subject>
<dc:subject>exercise</dc:subject>
<dc:subject>relaxation</dc:subject>
<dc:subject>body</dc:subject>
<dc:subject>care</dc:subject>
<dc:subject>digital</dc:subject>
<dc:subject>employee</dc:subject>
<dc:subject>manager</dc:subject>
<dc:subject>professional</dc:subject>
<dc:subject>occupation</dc:subject>
<dc:subject>career</dc:subject>
<dc:subject>task</dc:subject>
<dc:subject>indoors</dc:subject>
<dc:subject>contemporary</dc:subject>
<dc:subject>person</dc:subject>
<dc:subject>sitting</dc:subject>
<dc:subject>computer</dc:subject>
<dc:subject>table</dc:subject>
<dc:subject>room</dc:subject>
<dc:subject>happy</dc:subject>
<dc:subject>lifestyle</dc:subject>
<dc:subject>job</dc:subject>
<dc:subject>freelancer</dc:subject>
<dc:subject>startup</dc:subject>
<dc:subject>online</dc:subject>
<dc:subject>connection</dc:subject>
<dc:subject>business</dc:subject>
<dc:subject>workplace</dc:subject>
<dc:subject>technology</dc:subject>
<dc:subject>modern</dc:subject>
<dc:subject>creative</dc:subject>
<dc:subject>illustration</dc:subject>
<dc:subject>vector</dc:subject>
                                <xmp:Title>A man stretching at his desk in a home office setting, featuring a laptop, plant, and desk lamp. Concept for ergonomic workspace, health break reminders, and remote worker wellness.</xmp:Title>
                                <iptc:Headline>A man stretching at his desk in a home office setting, featuring a laptop, plant, and desk lamp. Concept for ergonomic workspace, health break reminders, and remote worker wellness.</iptc:Headline>
                                <iptc:Description></iptc:Description>
                                <iptc:Keywords>man</iptc:Keywords>
<iptc:Keywords>stretch</iptc:Keywords>
<iptc:Keywords>desk</iptc:Keywords>
<iptc:Keywords>office</iptc:Keywords>
<iptc:Keywords>home</iptc:Keywords>
<iptc:Keywords>laptop</iptc:Keywords>
<iptc:Keywords>plant</iptc:Keywords>
<iptc:Keywords>lamp</iptc:Keywords>
<iptc:Keywords>work</iptc:Keywords>
<iptc:Keywords>workspace</iptc:Keywords>
<iptc:Keywords>ergonomic</iptc:Keywords>
<iptc:Keywords>health</iptc:Keywords>
<iptc:Keywords>break</iptc:Keywords>
<iptc:Keywords>wellness</iptc:Keywords>
<iptc:Keywords>remote</iptc:Keywords>
<iptc:Keywords>worker</iptc:Keywords>
<iptc:Keywords>posture</iptc:Keywords>
<iptc:Keywords>exercise</iptc:Keywords>
<iptc:Keywords>relaxation</iptc:Keywords>
<iptc:Keywords>body</iptc:Keywords>
<iptc:Keywords>care</iptc:Keywords>
<iptc:Keywords>digital</iptc:Keywords>
<iptc:Keywords>employee</iptc:Keywords>
<iptc:Keywords>manager</iptc:Keywords>
<iptc:Keywords>professional</iptc:Keywords>
<iptc:Keywords>occupation</iptc:Keywords>
<iptc:Keywords>career</iptc:Keywords>
<iptc:Keywords>task</iptc:Keywords>
<iptc:Keywords>indoors</iptc:Keywords>
<iptc:Keywords>contemporary</iptc:Keywords>
<iptc:Keywords>person</iptc:Keywords>
<iptc:Keywords>sitting</iptc:Keywords>
<iptc:Keywords>computer</iptc:Keywords>
<iptc:Keywords>table</iptc:Keywords>
<iptc:Keywords>room</iptc:Keywords>
<iptc:Keywords>happy</iptc:Keywords>
<iptc:Keywords>lifestyle</iptc:Keywords>
<iptc:Keywords>job</iptc:Keywords>
<iptc:Keywords>freelancer</iptc:Keywords>
<iptc:Keywords>startup</iptc:Keywords>
<iptc:Keywords>online</iptc:Keywords>
<iptc:Keywords>connection</iptc:Keywords>
<iptc:Keywords>business</iptc:Keywords>
<iptc:Keywords>workplace</iptc:Keywords>
<iptc:Keywords>technology</iptc:Keywords>
<iptc:Keywords>modern</iptc:Keywords>
<iptc:Keywords>creative</iptc:Keywords>
<iptc:Keywords>illustration</iptc:Keywords>
<iptc:Keywords>vector</iptc:Keywords>
                            </rdf:Description>
                        </rdf:RDF>
                    </metadata>
                    </svg>
